<svg xmlns="http://www.w3.org/2000/svg" xmlns:xlink="http://www.w3.org/1999/xlink" width="32" height="32" viewBox="0 0 32 32" fill="none">
<path d="M4.66659 12L11.9999 12L11.9999 4.66665C11.9999 3.93027 12.5969 3.33331 13.3333 3.33331L18.6666 3.33331C19.403 3.33331 19.9999 3.93027 19.9999 4.66665L19.9999 12L27.3333 12C28.0697 12 28.6666 12.5969 28.6666 13.3333L28.6666 18.6666C28.6666 19.403 28.0697 20 27.3333 20L19.9999 20L19.9999 27.3333C19.9999 28.0697 19.403 28.6666 18.6666 28.6666L13.3333 28.6666C12.5969 28.6666 11.9999 28.0697 11.9999 27.3333L11.9999 20L4.66659 20C3.93021 20 3.33325 19.403 3.33325 18.6666L3.33325 13.3333C3.33325 12.5969 3.93021 12 4.66659 12Z" stroke="#6C5DD3" stroke-width="2.6666666666666665" stroke-linejoin="round" stroke-linecap="round" >
</path>
</svg>
