<?xml version="1.0" standalone="no"?><!DOCTYPE svg PUBLIC "-//W3C//DTD SVG 1.1//EN" "http://www.w3.org/Graphics/SVG/1.1/DTD/svg11.dtd"><svg t="1720282458843" class="icon" viewBox="0 0 1024 1024" version="1.1" xmlns="http://www.w3.org/2000/svg" p-id="22561" xmlns:xlink="http://www.w3.org/1999/xlink" width="32" height="32"><path d="M502.08 149.387A2819.456 2819.456 0 0 0 387.147 301.45c-29.686 42.325-56.32 83.285-79.136 122.176-54.219 92.384-84.128 168.597-84.128 220.096 0 173.824 137.088 314.4 305.781 314.4 168.672 0 305.781-140.576 305.781-314.4 0-51.478-29.909-127.712-84.128-220.096-22.816-38.891-49.45-79.851-79.136-122.176a2819.456 2819.456 0 0 0-114.944-152.064 2847.328 2847.328 0 0 0-27.584-33.6 2816.45 2816.45 0 0 0-27.562 33.6zM158.89 643.733c0-66.197 33.409-151.338 93.057-253.013 23.765-40.501 51.338-82.912 81.973-126.57a2883.413 2883.413 0 0 1 117.621-155.627 2831.128 2831.128 0 0 1 49.686-59.787l3.989-4.587 24.459-27.946 24.458 27.946 3.99 4.587c3.136 3.68 6.805 7.968 10.922 12.832a2804.245 2804.245 0 0 1 38.763 46.955 2883.413 2883.413 0 0 1 117.621 155.626c30.635 43.659 58.198 86.07 81.974 126.571 59.648 101.675 93.056 186.816 93.056 253.013 0 209.366-165.824 379.424-370.784 379.424-204.971 0-370.784-170.058-370.784-379.413z m370.785 266.475c-142.88 0-258.688-116.224-258.688-259.605 0-143.36 134.442-70.763 258.688 0 124.757 71.072 258.688-143.36 258.688 0 0 143.381-115.83 259.605-258.699 259.605h0.01z m195.253-729.376c0-23.648 15.659-51.755 41.813-84.107a512.213 512.213 0 0 1 39.595-43.434l11.243-10.774 11.242 10.774 3.531 3.456a512.203 512.203 0 0 1 36.064 39.978 316.347 316.347 0 0 1 23.445 32.662c11.755 19.104 18.368 36.138 18.368 51.445 0 51.584-41.44 93.472-92.64 93.472s-92.661-41.888-92.661-93.472z m67.104-63.68c-21.59 26.699-34.592 50.037-34.592 63.68 0 33.707 26.965 60.96 60.15 60.96 33.173 0 60.127-27.253 60.127-60.96 0-7.947-4.661-19.979-13.546-34.432a284.17 284.17 0 0 0-21.024-29.237 480.213 480.213 0 0 0-25.398-28.832 392.64 392.64 0 0 0-25.717 28.832z m-678.25 211.915c0-17.686 11.06-37.547 29.578-60.459a352.227 352.227 0 0 1 27.381-30.016l11.232-10.784 11.254 10.773a353.419 353.419 0 0 1 27.36 30.016c6.293 7.787 11.808 15.403 16.32 22.752 8.469 13.76 13.28 26.144 13.28 37.718 0 37.93-30.496 68.757-68.203 68.757-37.717 0-68.203-30.827-68.203-68.757z m54.869-40.022c-13.942 17.259-22.358 32.342-22.358 40.022 0 20.053 16.011 36.256 35.691 36.256 19.67 0 35.701-16.203 35.701-36.256 0-4.224-2.88-11.616-8.458-20.694a188.203 188.203 0 0 0-13.91-19.338 312.459 312.459 0 0 0-13.344-15.371 315.066 315.066 0 0 0-13.333 15.381z" p-id="22562" fill="#6C5DD3"></path></svg>