<svg xmlns="http://www.w3.org/2000/svg" xmlns:xlink="http://www.w3.org/1999/xlink" width="32" height="32" viewBox="0 0 32 32" fill="none">
<path d="M15.8907 27.1781C14.9594 27.1781 14.0844 26.8156 13.4282 26.1594L2.99692 15.725C1.64067 14.3688 1.64067 12.1594 2.99692 10.8L8.20317 5.59376C8.4313 5.36563 8.73755 5.24063 9.05942 5.24063L22.7282 5.24063C23.05 5.24063 23.3563 5.36876 23.5844 5.59376L28.7907 10.8C30.1469 12.1563 30.1469 14.3656 28.7907 15.725L18.3532 26.1594C17.6969 26.8156 16.8219 27.1781 15.8907 27.1781ZM9.55942 7.66251L4.7063 12.5125C4.2938 12.9281 4.2938 13.6 4.7063 14.0156L15.1375 24.4469C15.5375 24.8469 16.2407 24.8469 16.6375 24.4469L27.0719 14.0156C27.4875 13.6 27.4875 12.9281 27.0719 12.5125L22.2219 7.66251L9.55942 7.66251ZM27.9282 14.8719L27.9344 14.8719L27.9282 14.8719Z"   fill="#6C5DD3" >
</path>
<path d="M15.8906 22.2312C15.5562 22.2312 15.2374 22.0937 15.0093 21.85L9.29055 15.7625C8.8343 15.275 8.85617 14.5094 9.34367 14.0531C9.83117 13.5969 10.5968 13.6187 11.053 14.1062L15.8874 19.2562L20.7218 14.1062C21.1781 13.6187 21.9437 13.5937 22.4312 14.0531C22.9187 14.5094 22.9437 15.275 22.4843 15.7625L16.7718 21.85C16.5437 22.0937 16.2249 22.2312 15.8906 22.2312Z"   fill="#6C5DD3" >
</path>
</svg>
