<?xml version="1.0" standalone="no"?><!DOCTYPE svg PUBLIC "-//W3C//DTD SVG 1.1//EN" "http://www.w3.org/Graphics/SVG/1.1/DTD/svg11.dtd"><svg t="1720283898965" class="icon" viewBox="0 0 1024 1024" version="1.1" xmlns="http://www.w3.org/2000/svg" p-id="30187" xmlns:xlink="http://www.w3.org/1999/xlink" width="32" height="32"><path d="M329.955556 327.111111m-184.888889 0a184.888889 184.888889 0 1 0 369.777777 0 184.888889 184.888889 0 1 0-369.777777 0Z" p-id="30188" fill="#6C5DD3"></path><path d="M708.266667 423.822222m-156.444445 0a156.444444 156.444444 0 1 0 312.888889 0 156.444444 156.444444 0 1 0-312.888889 0Z" p-id="30189" fill="#6C5DD3"></path><path d="M822.044444 600.177778c-31.288889 25.6-71.111111 39.822222-116.622222 39.822222-28.444444 0-56.888889-5.688889-82.488889-19.911111-22.755556 17.066667-42.666667 42.666667-59.733333 71.111111-28.444444-71.111111-71.111111-122.311111-119.466667-153.6-34.133333 19.911111-73.955556 31.288889-113.777777 31.288889-42.666667 0-79.644444-11.377778-113.777778-31.288889C122.311111 597.333333 56.888889 728.177778 56.888889 910.222222h910.222222c0-162.133333-59.733333-270.222222-145.066667-310.044444z" p-id="30190" fill="#6C5DD3"></path></svg>