<svg xmlns="http://www.w3.org/2000/svg" xmlns:xlink="http://www.w3.org/1999/xlink" width="36" height="36" viewBox="0 0 36 36" fill="none">
<path   fill-rule="evenodd"  fill="#1D2027"  d="M17.3592 6C14.5303 6 12.237 8.3505 12.237 11.25C12.237 14.1495 14.5303 16.5 17.3592 16.5C20.1881 16.5 22.4813 14.1495 22.4813 11.25C22.4813 8.3505 20.1881 6 17.3592 6ZM31.1818 30C30.4538 23.2501 24.8705 18 18.0909 18C11.3113 18 5.728 23.2501 5 30L10.7924 30C11.2683 26.3036 14.3546 23.4509 18.091 23.4509C21.8274 23.4509 24.9137 26.3036 25.3896 30L31.1818 30ZM15.1639 30L21.0179 30C21.0179 28.3431 19.7074 27 18.0909 27C16.4744 27 15.1639 28.3431 15.1639 30Z">
</path>
<path     fill="url(#linear_fill_0_1171_0)"  d="M15.1641 30L21.018 30C21.018 28.3431 19.7075 27 18.091 27C16.4745 27 15.1641 28.3431 15.1641 30Z">
</path>
<defs>
<radialGradient id="linear_fill_0_1171_0" cx="0" cy="0" r="1" gradientTransform="translate(21.099609375 30.032135009765625) rotate(-64.47876073127958) scale(6.288839476607129, 5.334202090457229)" gradientUnits="userSpaceOnUse">
<stop offset="0" stop-color="#13C93E"  />
<stop offset="1" stop-color="#ADE446"  />
</radialGradient>
</defs>
</svg>
