<?xml version="1.0" standalone="no"?><!DOCTYPE svg PUBLIC "-//W3C//DTD SVG 1.1//EN" "http://www.w3.org/Graphics/SVG/1.1/DTD/svg11.dtd"><svg t="1720284015980" class="icon" viewBox="0 0 1024 1024" version="1.1" xmlns="http://www.w3.org/2000/svg" p-id="36928" xmlns:xlink="http://www.w3.org/1999/xlink" width="32" height="32"><path d="M160.1536 491.1104c-14.199467-6.417067-27.170133-10.922667-38.912-17.749333-17.6128-10.24-28.945067-26.2144-33.1776-46.011734-5.870933-28.398933-7.236267-57.207467 0.955733-85.333333 9.557333-33.314133 38.775467-55.978667 73.454934-57.480533 27.0336-1.2288 54.340267-0.546133 81.373866-0.8192h13.243734c-4.642133-18.432-9.8304-35.771733-13.1072-53.384534-7.7824-42.5984 10.24-88.4736 42.325333-107.861333 25.122133-15.1552 52.565333-15.428267 80.008533-9.147733 59.8016 13.380267 103.492267 49.425067 137.216 99.259733 1.774933 2.730667 3.549867 5.3248 5.461334 8.055467 0.136533 0.273067 0.682667 0.136533 1.911466 0.4096 7.236267-10.103467 14.062933-21.026133 22.254934-30.856534 33.723733-40.413867 75.229867-68.4032 127.658666-78.506666 65.262933-12.561067 115.234133 27.579733 116.3264 94.481066 0.273067 12.834133-0.8192 25.941333-3.413333 38.638934-2.4576 12.561067-7.3728 24.712533-11.741867 38.5024 4.5056 0.273067 8.738133 0.546133 12.834134 0.546133 27.170133 0.136533 54.340267-0.682667 81.373866 0.682667 45.329067 2.321067 77.960533 36.864 79.325867 82.3296 0.273067 11.332267 0.136533 22.664533 0.136533 33.9968-0.4096 45.192533-24.849067 75.776-68.8128 86.152533-1.911467 0.4096-3.822933 1.2288-6.9632 2.184533v14.062934c0 85.879467 0.136533 171.758933 0 257.774933-0.136533 40.1408-12.288 75.776-41.506133 104.311467-26.2144 25.668267-57.480533 41.096533-94.481067 41.096533-142.677333 0.4096-285.354667 0.955733-427.895466-0.136533-75.3664-0.546133-135.441067-63.624533-135.850667-140.356267-0.546133-87.108267-0.136533-174.216533-0.136533-261.3248 0.136533-4.9152 0.136533-9.8304 0.136533-13.5168z m323.310933 362.769067V489.0624H212.992v12.561067c0.136533 86.289067 0.136533 172.578133 0.273067 258.8672 0.136533 56.9344 36.590933 93.252267 93.661866 93.3888 42.461867 0.136533 85.060267 0 127.522134 0h49.015466z m52.8384 0h10.786134c55.569067 0 111.0016 0.136533 166.570666 0 56.9344-0.136533 93.252267-36.590933 93.252267-93.7984 0.136533-85.879467 0-171.758933 0-257.774934v-12.970666H536.302933v364.544z m-53.111466-517.188267c-4.096-0.273067-6.826667-0.682667-9.693867-0.682667H173.397333c-3.2768 0-6.5536 0.273067-9.693866 0.8192-15.837867 2.594133-25.941333 13.789867-26.487467 29.9008-0.4096 10.103467-0.136533 20.206933-0.136533 30.3104 0 27.989333 10.24 38.365867 37.819733 38.365867H483.191467v-98.7136z m53.794133 98.7136h181.8624c43.690667 0 87.517867 0.136533 131.208533 0 20.753067-0.136533 32.494933-11.741867 33.041067-32.221867 0.273067-8.874667 0.136533-17.749333 0-26.760533 0-29.627733-10.6496-40.413867-40.004267-40.413867H550.365867c-4.369067 0-8.6016 0.4096-13.380267 0.546134v98.850133z m-61.0304-151.688533c1.092267-1.2288 2.321067-2.321067 3.413333-3.549867-10.103467-17.749333-18.432-36.727467-30.583466-52.974933-24.439467-32.631467-55.978667-55.842133-97.0752-63.761067-33.9968-6.5536-52.155733 5.597867-55.432534 38.0928-2.8672 28.535467 4.778667 54.613333 22.664534 77.141333 1.911467 2.4576 5.870933 4.642133 8.874666 4.642134 49.425067 0.4096 98.850133 0.4096 148.138667 0.4096z m66.628267 0c51.063467 0 100.352 0 149.640533-0.136534 2.730667 0 6.5536-1.6384 8.192-3.822933 20.8896-27.989333 30.583467-58.5728 19.6608-93.252267-5.461333-17.476267-15.1552-23.7568-33.450667-24.1664-27.4432-0.546133-51.2 9.557333-73.3184 24.849067-34.133333 23.483733-57.7536 54.613333-70.724266 96.529067z" p-id="36929" fill="#6C5DD3"></path><path d="M485.102933 910.9504c-63.0784 0-126.293333-0.136533-189.098666-0.682667-37.410133-0.273067-72.4992-15.5648-98.986667-42.871466-26.2144-27.170133-40.823467-63.214933-40.96-101.5808-0.4096-60.757333-0.273067-122.4704-0.136533-182.135467 0-26.350933 0.136533-52.8384 0.136533-79.189333v-10.786134c-3.6864-1.6384-7.236267-3.140267-10.6496-4.5056-9.284267-3.822933-18.0224-7.509333-26.2144-12.288-18.568533-10.6496-30.72-27.579733-35.089067-48.7424-6.826667-32.768-6.5536-61.303467 0.955734-87.381333 10.103467-35.089067 40.413867-58.845867 77.141333-60.484267 18.978133-0.8192 38.229333-0.8192 56.797867-0.8192h32.904533c-1.092267-4.096-2.048-8.055467-3.140267-12.014933-3.2768-12.424533-6.417067-24.302933-8.738133-36.590933-8.192-44.509867 10.376533-91.613867 44.2368-112.093867 22.9376-13.789867 50.107733-16.930133 83.012267-9.557333 56.661333 12.6976 102.4 45.738667 139.6736 100.898133l1.774933 2.594133c0.4096 0.682667 0.955733 1.365333 1.365333 2.048 1.365333-2.048 2.730667-3.959467 4.096-6.007466 4.9152-7.236267 9.966933-14.609067 15.701334-21.435734 36.590933-43.963733 79.0528-70.0416 130.116266-79.872 32.904533-6.280533 63.351467 0.136533 85.6064 18.295467 22.391467 18.158933 34.952533 46.557867 35.498667 80.008533 0.273067 13.380267-0.955733 26.760533-3.413333 39.458134-1.774933 8.874667-4.642133 17.476267-7.7824 26.487466l-2.4576 7.3728c2.594133 0.136533 4.9152 0.273067 7.3728 0.273067h26.2144c18.158933-0.136533 36.864-0.136533 55.432533 0.682667 22.9376 1.092267 43.8272 10.513067 58.9824 26.2144 15.018667 15.701333 23.620267 37.000533 24.302933 60.074666 0.273067 10.6496 0.273067 21.2992 0.136534 31.675734v2.4576c-0.4096 47.240533-25.941333 79.325867-71.953067 90.112-1.092267 0.273067-2.184533 0.682667-3.6864 1.092266h-0.136533V577.536c0 59.938133 0 122.0608-0.136534 183.0912-0.136533 43.554133-14.472533 79.598933-42.734933 107.178667-28.535467 27.989333-61.303467 42.1888-97.348267 42.325333l-27.170133 0.136533c-69.495467 0.546133-140.356267 0.682667-211.626667 0.682667zM205.6192 287.812267c-14.199467 0-28.672 0.136533-43.008 0.8192-33.1776 1.501867-60.6208 22.9376-69.768533 54.613333-7.099733 24.712533-7.3728 52.0192-0.8192 83.421867 3.959467 18.8416 14.7456 33.860267 31.1296 43.281066 7.7824 4.5056 16.247467 8.055467 25.258666 11.8784 4.232533 1.774933 8.738133 3.6864 13.243734 5.7344l2.4576 1.092267v16.110933c0 26.350933 0 52.8384-0.136534 79.189334-0.136533 59.665067-0.136533 121.378133 0.136534 182.135466 0.273067 36.181333 13.9264 70.178133 38.638933 95.8464 24.849067 25.8048 57.890133 40.1408 93.115733 40.413867 133.5296 0.955733 269.380267 0.546133 400.725334 0.273067l27.170133-0.136534c33.860267-0.136533 64.7168-13.5168 91.613867-40.004266 26.624-26.077867 40.1408-60.2112 40.277333-101.444267 0.136533-61.0304 0.136533-123.016533 0.136533-183.0912V486.058667l2.8672-0.955734c1.092267-0.4096 1.911467-0.682667 2.730667-0.955733 1.6384-0.546133 3.003733-1.092267 4.5056-1.365333 41.915733-9.8304 65.262933-39.048533 65.536-82.193067v-2.4576c0.136533-10.376533 0.136533-21.026133-0.136533-31.402667-1.2288-43.963733-32.3584-76.1856-75.502934-78.370133-18.295467-0.955733-36.864-0.8192-54.8864-0.682667-8.6016 0-17.6128 0.136533-26.350933 0-3.003733 0-5.7344-0.136533-8.738133-0.4096-1.365333-0.136533-2.730667-0.136533-4.232534-0.273066l-5.3248-0.273067 1.6384-5.051733c1.365333-4.369067 2.8672-8.6016 4.232534-12.6976 3.003733-8.738133 5.870933-17.066667 7.509333-25.3952 2.321067-12.151467 3.549867-24.849067 3.2768-37.6832-0.546133-30.993067-12.014933-57.207467-32.494933-73.864534s-48.469333-22.528-78.916267-16.657066c-49.015467 9.4208-89.975467 34.679467-125.3376 77.0048-5.461333 6.5536-10.513067 13.789867-15.291733 20.8896-2.184533 3.2768-4.5056 6.5536-6.826667 9.693866l-1.501867 2.048-2.594133-0.4096c-0.273067 0-0.546133-0.136533-0.8192-0.136533-0.8192-0.136533-2.594133-0.273067-3.6864-1.911467-1.2288-1.774933-2.4576-3.6864-3.6864-5.461333l-1.774933-2.594133c-36.0448-53.384533-80.145067-85.333333-134.7584-97.4848-31.266133-6.9632-55.7056-4.232533-77.0048 8.738133-30.446933 18.432-47.9232 63.0784-40.413867 103.6288 2.184533 11.8784 5.3248 23.620267 8.6016 35.908267 1.501867 5.597867 3.003733 11.332267 4.5056 17.2032l1.2288 5.051733h-43.281067c-4.232533 0.273067-8.738133 0.273067-13.243733 0.273067z m442.641067 570.1632h-116.053334v-372.736H811.008V759.944533c-0.136533 59.392-38.229333 97.757867-97.348267 97.8944-21.845333 0.136533-43.690667 0.136533-65.399466 0.136534z m-107.861334-8.192h173.124267c26.760533 0 49.288533-8.465067 64.989867-24.302934s24.029867-38.5024 24.1664-65.399466c0.136533-60.484267 0-121.924267 0-181.316267v-85.1968H540.398933v356.215467z m-184.046933 8.192h-49.425067c-59.255467-0.136533-97.4848-38.365867-97.621333-97.4848-0.136533-60.6208-0.136533-122.333867-0.273067-181.8624 0-25.668267 0-51.2-0.136533-76.868267v-16.520533h278.664533v373.009066h-92.296533c-12.6976-0.273067-25.8048-0.273067-38.912-0.273066zM217.088 493.1584v8.465067c0 25.668267 0 51.2 0.136533 76.868266 0 59.665067 0.136533 121.2416 0.273067 181.8624 0.136533 26.897067 8.465067 49.425067 24.302933 65.1264s38.365867 24.1664 65.262934 24.1664c29.4912 0.136533 59.392 0 88.4736 0H479.6416V493.1584H217.088zM793.531733 439.637333H532.8896v-106.769066l3.959467-0.136534c1.501867-0.136533 3.003733-0.136533 4.369066-0.273066 3.140267-0.136533 6.144-0.4096 9.147734-0.4096h292.727466c31.675733 0 43.963733 12.561067 44.100267 44.509866v7.3728c0 6.417067 0.136533 12.970667-0.136533 19.524267-0.546133 22.9376-14.062933 36.0448-37.000534 36.181333-18.8416-0.136533-37.6832 0-56.5248 0z m-74.001066-8.328533h37.137066c30.583467 0 62.2592 0 93.3888-0.136533 18.432-0.136533 28.398933-9.8304 28.945067-28.125867 0.136533-6.417067 0.136533-12.970667 0.136533-19.2512v-7.3728c0-27.579733-8.738133-36.317867-35.908266-36.317867H550.5024c-2.8672 0-5.597867 0.136533-8.6016 0.4096h-0.546133v90.794667h177.7664 0.4096z m-411.374934 8.192h-133.256533c-29.764267 0-41.915733-12.288-41.915733-42.461867v-7.3728c0-7.645867-0.136533-15.428267 0.273066-23.210666 0.682667-17.885867 12.151467-30.856533 29.9008-33.860267 3.2768-0.546133 6.690133-0.8192 10.376534-0.8192h300.100266c2.048 0 3.959467 0.136533 6.144 0.4096 1.092267 0.136533 2.321067 0.273067 3.822934 0.273067l3.822933 0.273066v106.632534h-98.030933c-27.170133 0.136533-54.203733 0.136533-81.237334 0.136533z m17.339734-99.396267H173.397333c-3.140267 0-6.144 0.273067-9.0112 0.682667-13.9264 2.321067-22.528 12.014933-23.074133 26.077867-0.273067 7.509333-0.273067 15.291733-0.136533 22.801066v7.3728c0 25.941333 8.192 34.269867 33.723733 34.269867h304.196267v-90.794667h-0.136534c-2.184533-0.136533-3.822933-0.273067-5.461333-0.273066-51.2-0.136533-100.352-0.136533-148.002133-0.136534z m96.119466-52.292266c-30.993067 0-62.532267 0-93.7984-0.273067-4.096 0-9.284267-2.730667-12.151466-6.280533-18.568533-23.483733-26.487467-50.517333-23.483734-80.145067 1.6384-16.930133 7.099733-28.672 16.7936-35.908267 10.24-7.645867 24.439467-9.557333 43.554134-5.870933 39.3216 7.509333 72.9088 29.4912 99.5328 65.262933 8.465067 11.4688 15.291733 24.302933 21.845333 36.727467 2.8672 5.461333 5.870933 11.195733 9.0112 16.657067l1.501867 2.730666-6.826667 6.9632h-29.0816c-8.874667 0.136533-17.885867 0.136533-26.897067 0.136534z m-86.289066-121.924267c-8.874667 0-15.9744 2.048-21.435734 6.007467-7.645867 5.7344-12.014933 15.5648-13.5168 30.037333-2.730667 27.4432 4.642133 52.4288 21.845334 74.274133 1.2288 1.6384 4.096 3.140267 5.7344 3.140267 40.277333 0.273067 81.1008 0.273067 120.695466 0.273067l25.668267-0.136534c-2.594133-4.778667-5.188267-9.557333-7.645867-14.199466-6.417067-12.151467-12.970667-24.712533-21.162666-35.6352-25.531733-34.133333-57.344-55.022933-94.6176-62.122667-5.7344-1.092267-10.922667-1.6384-15.5648-1.6384z m261.461333 121.924267h-59.8016l1.6384-5.3248c12.970667-41.915733 36.727467-74.274133 72.362667-98.7136 26.2144-17.885867 50.244267-26.077867 75.776-25.531734 20.48 0.4096 31.402667 8.192 37.2736 27.0336 10.376533 33.041067 3.822933 64.7168-20.343467 96.938667-2.594133 3.549867-7.7824 5.461333-11.4688 5.461333-31.675733 0.136533-62.941867 0.136533-95.4368 0.136534z m-48.605867-8.192h21.572267c42.1888 0 81.92 0 122.4704-0.136534 1.774933 0 4.232533-1.2288 4.9152-2.184533 22.391467-29.9008 28.535467-59.255467 18.978133-89.565867-4.778667-15.291733-12.561067-20.8896-29.627733-21.2992-23.7568-0.546133-46.2848 7.099733-70.997333 24.029867-32.3584 22.391467-54.4768 51.6096-67.310934 89.156267z" p-id="36930" fill="#6C5DD3"></path></svg>