<?xml version="1.0" standalone="no"?><!DOCTYPE svg PUBLIC "-//W3C//DTD SVG 1.1//EN" "http://www.w3.org/Graphics/SVG/1.1/DTD/svg11.dtd"><svg t="1720282549190" class="icon" viewBox="0 0 1024 1024" version="1.1" xmlns="http://www.w3.org/2000/svg" p-id="1492" xmlns:xlink="http://www.w3.org/1999/xlink" width="32" height="32"><path d="M804.55681 500.181073v-14.632957h88.309384c33.870691-28.140302 33.870691-73.676427 0-101.919056L524.791046 88.207055c-16.884181-14.018987-39.089437-31.312481-61.294693-31.312481-22.205256 0-44.410513 7.060658-61.294694 21.079644L34.22884 383.526731c-33.870691 28.24263-33.870691 73.778755 0 101.919057h88.309383v377.387029c0 57.201559 45.740781 103.453982 102.430699 103.453982h477.361846c15.656241 0 31.107825-3.581493 45.024483-10.539822 83.090637 13.712002 166.9999-19.135405 218.675727-85.648846 51.675827-66.411112 62.931948-155.846108 29.265914-233.001699-33.666034-77.155591-106.830818-129.650045-190.740082-136.915359zM276.030778 891.791746c-37.861497 0-68.662336-31.312481-68.662336-69.787949V410.848406h-46.354752c-3.78615-5.01409-5.832717-11.051464-5.935045-17.293494 0-9.107225 4.707105-18.009793 13.302688-25.070451l255.51394-203.224143c10.130509-8.493255 24.661137-13.302688 39.805736-13.302688 15.144599 0 29.572899 4.809433 39.805736 13.302688l245.178775 203.224143c8.595583 7.162986 13.302688 16.065554 13.302688 25.172779-0.102328 6.242031-2.148896 12.279404-5.935045 17.293494h-37.145199s-1.432597 83.295293 1.944239 97.621266c-79.816129 23.22854-142.441091 88.616369-160.450884 172.62796-15.963226 74.802039 6.446687 150.729689 56.382932 204.452084 2.148896 2.251224 6.549016 6.753672 6.549016 6.753672l-347.302489-0.61397z m626.863596-44.717498c-30.800839 31.005496-72.653143 48.503647-116.347357 48.810633h-1.534925c-11.563106 0-23.023883-1.22794-34.382333-3.581493-81.248726-17.191166-137.529329-91.481563-131.901269-174.367543S690.051364 568.945738 772.835015 562.908364c3.990806-0.306985 8.083941-0.409313 12.177077-0.409313 5.62806 0 11.256121 0.204657 16.884181 0.716298 63.955231 6.549016 118.496253 49.322274 140.087538 110.002998 21.591286 60.578395 6.344359 128.217448-39.191765 173.753573l0.102328 0.102328z m0 0" fill="#6C5DD3" p-id="1493"></path><path d="M555.694214 520.749076h-19.749375l41.954631-45.945439c12.177076-12.177076 12.177076-32.233437 0-44.512841-12.177076-12.177076-32.233437-12.177076-44.512841 0l-63.034276 68.969322c-5.935045 5.935045-9.004897 13.712002-9.107225 21.488958h-0.920955c-0.204657-7.776956-3.274508-15.553912-9.107225-21.488958l-63.034276-68.969322c-12.177076-12.177076-32.233437-12.177076-44.512841 0-12.177076 12.177076-12.177076 32.233437 0 44.512841l41.954632 45.945439h-19.749376c-17.293495 0-31.41481 14.121315-31.414809 31.414809s14.121315 31.41481 31.414809 31.41481H428.807035v25.172779h-62.931948c-17.293495 0-31.41481 14.121315-31.414809 31.41481s14.121315 31.41481 31.414809 31.414809H428.807035v68.866993c0 17.293495 14.121315 31.41481 31.41481 31.41481s31.41481-14.121315 31.414809-31.41481v-68.866993H524.995703c17.293495 0 31.41481-14.121315 31.41481-31.414809s-14.121315-31.41481-31.41481-31.41481h-33.154392v-25.172779H555.694214c17.293495 0 31.41481-14.121315 31.41481-31.41481s-14.121315-31.41481-31.41481-31.414809zM855.107025 743.210952c-10.64215-10.64215-27.730988-11.358449-39.294094-2.148895v-90.151295c0-16.167882-13.20036-29.470571-29.470571-29.47057-16.167882 0-29.470571 13.20036-29.47057 29.47057v91.890877c-11.460777-11.256121-30.084541-11.153792-41.44299 0.204657-11.460777 11.460777-11.460777 30.186869 0 41.647646l48.708304 48.708304c3.376836 3.376836 7.265314 5.730389 11.460777 7.060658 5.730389 2.046567 11.972419 2.251224 17.702809 0.61397 6.753672-1.739582 12.688718-5.730389 16.679524-11.256121l44.922154-44.922154c11.665434-11.460777 11.665434-30.289198 0.204657-41.647647z" fill="#6C5DD3" p-id="1494"></path></svg>