<?xml version="1.0" standalone="no"?><!DOCTYPE svg PUBLIC "-//W3C//DTD SVG 1.1//EN" "http://www.w3.org/Graphics/SVG/1.1/DTD/svg11.dtd"><svg t="1720282334692" class="icon" viewBox="0 0 1024 1024" version="1.1" xmlns="http://www.w3.org/2000/svg" p-id="17723" xmlns:xlink="http://www.w3.org/1999/xlink" width="32" height="32"><path d="M756.91008 364.59008V834.7392c0 13.02016 2.85696 30.0032-3.70176 41.68704-6.5536 11.6736-31.6416 7.6288-42.42432 7.6288h-417.9968c-14.65856 0-36.75648 2.30912-36.75648-19.11296V480.93184 364.5952c0-49.52576-76.8-49.52576-76.8 0v379.66336c0 47.03232-5.25312 97.52576 2.88768 144.13312 7.9104 45.28128 55.02464 72.46336 97.57184 72.46336h457.50272c52.48512 0 96.512-43.47392 96.512-96.11776v-44.17024-223.62112V364.5952c0.00512-49.52576-76.79488-49.52576-76.79488-0.00512z" p-id="17724" fill="#6C5DD3"></path><path d="M815.08864 565.25312l173.94688-59.04896c18.35008-6.22592 34.55488-26.82368 26.81856-47.23712l-67.03616-176.8192-24.87296-65.6128c-18.11456-47.78496-30.27456-97.9456-76.88192-126.40768-40.50432-24.73472-101.28384-16.80896-147.19488-16.80896H276.1984c-48.89088 0-101.10976-1.31584-135.45984 40.05376-40.01792 48.2048-54.7584 123.04384-75.15136 182.03648L9.05216 458.97216c-7.13216 20.62336 8.00768 40.86784 26.81856 47.23712l171.55072 58.05568c47.04256 15.91808 67.06176-58.27072 20.41344-74.05568L56.28416 432.15872l26.81856 47.23712 61.12256-176.81408 22.6816-65.61792c7.76192-22.45632 14.2336-44.76416 26.1888-65.44896 8.20224-14.19264 13.12256-16.79872 28.52352-20.15232 10.59328-2.30912 30.39744-1.23392 45.01504-1.23392h505.32352c34.46272 0 46.44864 8.72448 61.91104 40.92928 9.82528 20.46976 15.03744 43.3408 23.1168 64.64l31.5904 83.33824 53.21216 140.35968 26.81856-47.23712-173.94688 59.04896c-46.61248 15.81568-26.5984 90.01472 20.4288 74.04544zM399.36 808.96h395.95008c49.52576 0 49.52576-76.8 0-76.8H399.36c-49.52576 0-49.52576 76.8 0 76.8z" p-id="17725" fill="#6C5DD3"></path><path d="M639.60064 111.7184c-1.50016 70.54336-56.6016 125.6448-127.14496 127.14496-70.54848 1.50528-125.69088-58.8544-127.15008-127.14496-1.05472-49.45408-77.85472-49.55648-76.8 0 2.40128 112.72192 91.22816 201.54368 203.94496 203.94496 112.71168 2.40128 201.62048-94.84288 203.94496-203.94496 1.05984-49.55136-75.74016-49.44896-76.79488 0z" p-id="17726" fill="#6C5DD3"></path></svg>