<svg xmlns="http://www.w3.org/2000/svg" xmlns:xlink="http://www.w3.org/1999/xlink" width="36" height="36" viewBox="0 0 36 36" fill="none">
<path   fill-rule="evenodd"  fill="#CCCCCC"  d="M27 21C28.6569 21 30 19.6569 30 18C30 16.3431 28.6569 15 27 15C25.3431 15 24 16.3431 24 18C24 19.6569 25.3431 21 27 21ZM4.5 7.5L4.5 28.5C4.5 29.3284 5.17157 30 6 30L28.5 30C30.1569 30 31.5 28.6569 31.5 27L31.5 24L27 24C23.998 24 21.511 21.7953 21.0696 18.9168L6 6C5.17157 6 4.5 6.67157 4.5 7.5ZM21.0696 18.9168C21.0238 18.6179 21 18.3117 21 18C21 14.6863 23.6863 12 27 12L31.5 12L31.5 9C31.5 7.34315 30.1569 6 28.5 6L6 6L21.0696 18.9168ZM21.0696 18.9168C21.511 21.7953 23.998 24 27 24L21.0696 18.9168Z">
</path>
</svg>
