<svg xmlns="http://www.w3.org/2000/svg" xmlns:xlink="http://www.w3.org/1999/xlink" width="32" height="32" viewBox="0 0 32 32" fill="none">
<path d="M10.761 12.596L5.73599 12.596L13.339 20.198L20.942 12.596L16.024 12.596C16.3 2.00301 6.67499 0.823007 0.666992 6.38101C4.74599 4.12801 10.969 3.75001 10.762 12.596L10.761 12.596ZM29.305 2.07001L12.902 2.07001C13.745 2.50501 14.503 3.06701 15.168 3.75001C16.039 4.64301 16.716 5.48301 17.297 7.51401L29.642 7.51401L29.642 29.423L3.79499 29.423L3.79499 8.05001C3.79499 8.05001 3.271 7.42101 2.14 7.97201L2.14 29.236C2.14 30.358 3.049 31.2631 4.16899 31.2631L29.306 31.2631C30.427 31.2631 31.3341 30.358 31.3341 29.236L31.3341 4.09901C31.3341 2.97901 30.427 2.07001 29.305 2.07001Z"   fill="#6C5DD3" >
</path>
</svg>
