<svg xmlns="http://www.w3.org/2000/svg" xmlns:xlink="http://www.w3.org/1999/xlink" width="32" height="32" viewBox="0 0 32 32" fill="none">
<path d="M9.25 8C9.1125 8 9 8.1125 9 8.25L9 9.75C9 9.8875 9.1125 10 9.25 10L21.25 10C21.3875 10 21.5 9.8875 21.5 9.75L21.5 8.25C21.5 8.1125 21.3875 8 21.25 8L9.25 8ZM15.25 14.25L15.25 12.75C15.25 12.6125 15.1375 12.5 15 12.5L9.25 12.5C9.1125 12.5 9 12.6125 9 12.75L9 14.25C9 14.3875 9.1125 14.5 9.25 14.5L15 14.5C15.1375 14.5 15.25 14.3875 15.25 14.25ZM13.75 26.625L6.5 26.625L6.5 4.625L24 4.625L24 15.375C24 15.5125 24.1125 15.625 24.25 15.625L26 15.625C26.1375 15.625 26.25 15.5125 26.25 15.375L26.25 3.375C26.25 2.82188 25.8031 2.375 25.25 2.375L5.25 2.375C4.69688 2.375 4.25 2.82188 4.25 3.375L4.25 27.875C4.25 28.4281 4.69688 28.875 5.25 28.875L13.75 28.875C13.8875 28.875 14 28.7625 14 28.625L14 26.875C14 26.7375 13.8875 26.625 13.75 26.625ZM17.0031 23.0125C17.0594 21.9344 17.5094 20.925 18.2781 20.1562C19.0969 19.3375 20.2156 18.875 21.375 18.875C22.5438 18.875 23.6437 19.3312 24.4719 20.1562C24.5719 20.2563 24.6688 20.3625 24.7594 20.4719L24.0375 21.0312C23.8719 21.1594 23.9281 21.4219 24.1313 21.4719L27.0469 22.175C27.2031 22.2125 27.3531 22.0938 27.3563 21.9344L27.375 18.9531C27.375 18.7437 27.1375 18.625 26.9719 18.7531L26.3375 19.2469C25.1688 17.8 23.3781 16.875 21.375 16.875C17.9406 16.875 15.1375 19.5906 15 22.9906C14.9937 23.1313 15.1094 23.25 15.25 23.25L16.7531 23.25C16.8875 23.25 16.9969 23.1469 17.0031 23.0125ZM27.5 23.25L25.9969 23.25C25.8625 23.25 25.7531 23.3531 25.7469 23.4875C25.6906 24.5656 25.2406 25.575 24.4719 26.3438C23.6531 27.1625 22.5344 27.625 21.375 27.625C20.2062 27.625 19.1063 27.1688 18.2781 26.3438C18.1781 26.2437 18.0812 26.1375 17.9906 26.0281L18.7125 25.4688C18.8781 25.3406 18.8219 25.0781 18.6188 25.0281L15.7031 24.325C15.5469 24.2875 15.3969 24.4062 15.3938 24.5656L15.375 27.5469C15.375 27.7563 15.6125 27.875 15.7781 27.7469L16.4125 27.2531C17.5812 28.7 19.3719 29.625 21.375 29.625C24.8094 29.625 27.6125 26.9094 27.75 23.5094C27.7563 23.3687 27.6406 23.25 27.5 23.25Z"   fill="#6C5DD3" >
</path>
</svg>
