<?xml version="1.0" standalone="no"?><!DOCTYPE svg PUBLIC "-//W3C//DTD SVG 1.1//EN" "http://www.w3.org/Graphics/SVG/1.1/DTD/svg11.dtd"><svg t="1720282080193" class="icon" viewBox="0 0 1024 1024" version="1.1" xmlns="http://www.w3.org/2000/svg" p-id="11681" xmlns:xlink="http://www.w3.org/1999/xlink" width="32" height="32"><path d="M260.053333 258.773333L341.333333 312.533333l41.173334-1.066666 382.506666-203.306667a21.333333 21.333333 0 0 0 5.973334-34.346667c-18.773333-21.333333-65.493333-17.706667-90.24-4.48L570.88 130.133333l-209.92-16.426666a45.866667 45.866667 0 0 0-40.96 19.2 18.133333 18.133333 0 0 0 5.76 26.24l98.346667 52.266666L362.666667 244.906667l-81.706667-14.293334a29.013333 29.013333 0 0 0-25.386667 11.946667 11.306667 11.306667 0 0 0 4.48 16.213333zM590.293333 551.466667c59.733333 57.813333 142.506667 138.666667 142.506667 138.666666a124.8 124.8 0 0 0 80.853333 25.813334 714.666667 714.666667 0 0 0 149.333334-21.333334c-81.493333-126.293333-400.213333-260.053333-486.186667-260.053333H324.266667v-3.84a18.56 18.56 0 0 0-18.56-18.56h-140.8a18.56 18.56 0 0 0-18.56 18.56v3.84H94.72A30.72 30.72 0 0 0 64 465.066667v2.773333h308.693333c96.64 0 153.813333 22.826667 217.6 83.626667z" p-id="11682" fill="#6C5DD3"></path><path d="M94.72 815.573333h680.106667c137.173333 0 208.426667-11.733333 206.506666-67.84a83.2 83.2 0 0 0-4.266666-21.333333 770.773333 770.773333 0 0 1-159.573334 24.533333h-4.693333a154.88 154.88 0 0 1-103.893333-35.626666L566.613333 576c-57.173333-55.253333-106.666667-74.026667-193.92-74.026667H64v282.88a30.72 30.72 0 0 0 30.72 30.72z m231.893333-231.68c0-15.36 9.173333-27.733333 21.333334-27.733333h110.293333c29.226667 0 85.333333 78.506667 89.813333 95.573333a21.333333 21.333333 0 0 1-21.333333 27.733334h-179.626667c-11.306667 0-21.333333-12.586667-21.333333-27.733334z m-228.053333-9.173333a18.346667 18.346667 0 0 1 18.346667-18.56h141.013333a18.56 18.56 0 0 1 18.346667 18.56v85.333333a18.56 18.56 0 0 1-18.346667 18.56H116.906667a18.346667 18.346667 0 0 1-18.346667-17.28zM966.186667 856.746667H87.04a24.32 24.32 0 0 0 0 48.426666h879.146667a24.32 24.32 0 0 0 0-48.426666z" p-id="11683" fill="#6C5DD3"></path></svg>