<svg xmlns="http://www.w3.org/2000/svg" xmlns:xlink="http://www.w3.org/1999/xlink" width="36" height="36" viewBox="0 0 36 36" fill="none">
<path   fill-rule="evenodd"  fill="#1D2027"  d="M6 28.5C6 29.3284 6.67157 30 7.5 30L10.5 30C11.3284 30 12 29.3284 12 28.5L12 13.5C12 12.6716 11.3284 12 10.5 12L7.5 12C6.67157 12 6 12.6716 6 13.5L6 28.5ZM15 28.5C15 29.3284 15.6716 30 16.5 30L19.5 30C20.3284 30 21 29.3284 21 28.5L21 7.5C21 6.67157 20.3284 6 19.5 6L16.5 6C15.6716 6 15 6.67157 15 7.5L15 28.5ZM24 28.5C24 29.3284 24.6716 30 25.5 30L28.5 30C29.3284 30 30 29.3284 30 28.5L30 25.5C30 24.6716 29.3284 24 28.5 24L25.5 24C24.6716 24 24 24.6716 24 25.5L24 28.5ZM27 21C28.6569 21 30 19.6569 30 18C30 16.3431 28.6569 15 27 15C25.3431 15 24 16.3431 24 18C24 19.6569 25.3431 21 27 21Z">
</path>
<path     fill="url(#linear_fill_0_831_0)"  d="M27 21C28.6569 21 30 19.6569 30 18C30 16.3431 28.6569 15 27 15C25.3431 15 24 16.3431 24 18C24 19.6569 25.3431 21 27 21Z">
</path>
<defs>
<radialGradient id="linear_fill_0_831_0" cx="0" cy="0" r="1" gradientTransform="translate(30.0836181640625 21.06427001953125) rotate(-47.02779783211702) scale(7.94990734842002, 6.743122090271876)" gradientUnits="userSpaceOnUse">
<stop offset="0" stop-color="#13C93E"  />
<stop offset="1" stop-color="#ADE446"  />
</radialGradient>
</defs>
</svg>
