<svg xmlns="http://www.w3.org/2000/svg" xmlns:xlink="http://www.w3.org/1999/xlink" width="240" height="240" viewBox="0 0 240 240" fill="none">
<g  clip-path="url(#clip-path-dHjai0SgXnT3MQcbMYnyw)">
<path     fill="#FFFFFF" fill-opacity="0" d="M0 240L240 240L240 0L0 0L0 240Z">
</path>
<circle cx="120" cy="120" r="96"   fill="url(#linear_fill_gsv67f_FuvCAyBN8q3OKy)" >
</circle>
<path d="M87.1338 64.7575C86.5219 64.8925 85.8884 64.9634 85.2397 64.9634C84.8765 64.9634 84.518 64.9412 84.1655 64.8979C82.4889 67.736 79.0228 69.6847 75.0188 69.6847C69.3745 69.6847 64.7988 65.812 64.7988 61.0347C64.7988 56.2575 69.3745 52.3847 75.0188 52.3847C75.3662 52.3847 75.7095 52.3994 76.0479 52.428C77.0163 47.899 80.7641 44.5234 85.2397 44.5234C88.9977 44.5234 92.2425 46.9033 93.7598 50.3475C95.238 49.6361 96.8784 49.2402 98.6055 49.2402C105.12 49.2402 110.401 54.8725 110.401 61.8202C110.401 68.768 105.12 74.4002 98.6055 74.4002C93.0396 74.4002 88.3741 70.2884 87.1338 64.7575Z" fill-rule="evenodd"  fill="url(#linear_fill_-1nWvss4jxzMOMhBkmMoG)" >
</path>
<path d="M175.795 63.3148C176.042 63.3695 176.298 63.3982 176.56 63.3982C176.707 63.3982 176.852 63.3892 176.994 63.3717C177.671 64.5129 179.067 65.2962 180.679 65.2962C182.954 65.2962 184.799 63.7359 184.799 61.8112C184.799 59.8865 182.954 58.3262 180.679 58.3262C180.54 58.3262 180.402 58.332 180.267 58.3434C179.876 56.5183 178.365 55.1582 176.56 55.1582C175.045 55.1582 173.737 56.1171 173.125 57.505C172.529 57.2182 171.867 57.0586 171.171 57.0586C168.545 57.0586 166.416 59.3285 166.416 62.1286C166.416 64.9287 168.545 67.1986 171.171 67.1986C173.414 67.1986 175.294 65.5427 175.795 63.3148Z" fill-rule="evenodd"  fill="url(#linear_fill_8SvQMAilG3ApC2T7fP8Rt)" >
</path>
<path d="M151.795 75.3148C152.042 75.3695 152.298 75.3982 152.56 75.3982C152.707 75.3982 152.852 75.3892 152.994 75.3717C153.671 76.5129 155.067 77.2962 156.679 77.2962C158.954 77.2962 160.799 75.7359 160.799 73.8112C160.799 71.8865 158.954 70.3262 156.679 70.3262C156.54 70.3262 156.402 70.332 156.267 70.3434C155.876 68.5183 154.365 67.1582 152.56 67.1582C151.045 67.1582 149.737 68.1171 149.125 69.505C148.529 69.2182 147.867 69.0586 147.171 69.0586C144.545 69.0586 142.416 71.3285 142.416 74.1286C142.416 76.9287 144.545 79.1986 147.171 79.1986C149.414 79.1986 151.294 77.5427 151.795 75.3148Z" fill-rule="evenodd"  fill="url(#linear_fill_n0cGMHZ7hPaTev_msREcF)" >
</path>
<path d="M239.4 263.137C269.446 248.719 288 228.888 288 206.999C288 162.927 212.784 127.199 120 127.199C27.2162 127.199 -48 162.927 -48 206.999C-48 228.718 -29.7338 248.41 -0.100613 262.799L239.4 262.799L239.4 263.137Z" fill-rule="evenodd"  fill="url(#linear_fill_SeX6jOMMy6Y6vpyVs4mnI)" fill-opacity="0.5">
</path>
<ellipse transform="matrix(0.8371015191078186, 0.5470474362373352, 0.7259835004806519, -0.6877120733261108, 159.6015625, 159.673828125)" cx="10.425" cy="6.16" rx="10.425" ry="6.16"   fill="#DEE7F4" >
</ellipse>
<ellipse transform="matrix(0.8371015191078186, 0.5470474362373352, 0.7259835004806519, -0.6877120733261108, 161.2890625, 160.7265625)" cx="9.235" cy="4.915" rx="9.235" ry="4.915"   fill="url(#linear_fill_QPmK-ihZX-dxNlZw6cyag)" >
</ellipse>
<ellipse cx="188.91890625" cy="143.125390625" transform="rotate(25.57357761097531 184.75390625 140.400390625)" rx="4.165" ry="2.725"   fill="#DEE7F4" >
</ellipse>
<ellipse transform="matrix(0.9969717860221863, -0.07776398211717606, 0.06090164929628372, 0.99814373254776, 132.001953125, 161.71875)" cx="5.9" cy="4.355" rx="5.9" ry="4.355"   fill="#DEE7F4" >
</ellipse>
<ellipse cx="188.2171875" cy="143.64765625" transform="rotate(25.57357761097531 184.4921875 141.47265625)" rx="3.725" ry="2.175"   fill="url(#linear_fill_w2kVrUbsDqJ-VLgBj3V-z)" >
</ellipse>
<ellipse transform="matrix(0.9969717860221863, -0.07776398211717606, 0.06090164929628372, 0.99814373254776, 133.5859375, 162.744140625)" cx="4.97" cy="3.75" rx="4.97" ry="3.75"   fill="url(#linear_fill_X3MEwHfJgRbOYrgXPJAtX)" >
</ellipse>
<ellipse cx="39.025546875" cy="149.606328125" transform="rotate(-14.095111143599842 35.560546875 147.486328125)" rx="3.465" ry="2.12"   fill="#DEE7F4" >
</ellipse>
<ellipse cx="39.4371875" cy="149.840390625" transform="rotate(-14.095111143599842 36.3671875 148.150390625)" rx="3.07" ry="1.69"   fill="url(#linear_fill_LCX66c5KQDN43foBFCUGX)" >
</ellipse>
<ellipse transform="matrix(0.9960215091705322, -0.08911281079053879, 0.053118593990802765, 0.9985881447792053, 96.001953125, 162.609375)" cx="9.585" cy="8.105" rx="9.585" ry="8.105"   fill="#DEE7F4" >
</ellipse>
<ellipse transform="matrix(0.9960215091705322, -0.08911281079053879, 0.053118593990802765, 0.9985881447792053, 98.57421875, 164.521484375)" cx="8.075" cy="6.98" rx="8.075" ry="6.98"   fill="url(#linear_fill_VlpnHT9VdtuP-CsqQQiGg)" >
</ellipse>
<ellipse transform="matrix(0.9996585845947266, 0.026125414296984673, -0.03793925791978836, 0.9992799758911133, 53.583984375, 164.330078125)" cx="4.41" cy="3.52" rx="4.41" ry="3.52"   fill="#DEE7F4" >
</ellipse>
<ellipse transform="matrix(0.9996585845947266, 0.026125414296984673, -0.03793925791978836, 0.9992799758911133, 54.685546875, 165.287109375)" cx="3.715" cy="3.035" rx="3.715" ry="3.035"   fill="url(#linear_fill_AfwiF80H2RuxAn8nlzYAb)" >
</ellipse>
<rect  x="52.45703125" y="147.830078125" width="1.8" height="8.05" transform="rotate(-118.45763465632925 52.45703125 147.830078125)" rx="0.9"    fill="url(#linear_fill_iRu96Q1l76tzdjEt2mCbz_0)" >
</rect>
<rect  x="58.142578125" y="138.099609375" width="1.17" height="6.26" rx="0.585"    fill="url(#linear_fill_XkBQi597bW8RJhYLDfHur_0)" >
</rect>
<path     fill="url(#linear_fill_90RuamvStncWRNu5rUfGC_0)"  d="M54.298 132.861L53.508 136.531C53.068 138.551 54.608 140.451 56.668 140.451L60.398 140.451C62.468 140.461 64.008 138.551 63.568 136.531L62.778 132.861C62.738 132.701 62.698 132.541 62.648 132.391L60.728 126.401C60.428 125.451 59.538 124.801 58.538 124.801L58.538 124.801C57.538 124.801 56.648 125.451 56.348 126.401L54.418 132.391C54.368 132.541 54.328 132.701 54.298 132.861Z">
</path>
<rect  x="171.080078125" y="137.689453125" width="1.41" height="6.29" transform="rotate(-118.81165823581097 171.080078125 137.689453125)" rx="0.705"    fill="url(#linear_fill_vMxexq_XBaG1QbFWuBfIb_0)" >
</rect>
<rect  x="175.603515625" y="130.5390625" width="0.82" height="4.4" rx="0.41"    fill="url(#linear_fill_gKN0SWl9C296aE9HlNLdG_0)" >
</rect>
<path     fill="url(#linear_fill_5SEzu5jKDJOxjA16Un5hR_0)"  d="M172.88 126.959L172.35 129.439C172.04 130.849 173.12 132.189 174.57 132.189L177.19 132.189C178.64 132.189 179.72 130.849 179.41 129.439L178.88 126.959C178.84 126.779 178.8 126.599 178.74 126.429L177.42 122.319C177.2 121.649 176.58 121.199 175.88 121.199L175.88 121.199C175.18 121.199 174.56 121.649 174.34 122.319L173.02 126.429C172.96 126.599 172.92 126.779 172.88 126.959Z">
</path>
<rect  x="155.5859375" y="156.701171875" width="1.65" height="7.37" transform="rotate(-118.45763465632925 155.5859375 156.701171875)" rx="0.825"    fill="url(#linear_fill_y3lYtYd-56d3lkSJUCkse_0)" >
</rect>
<rect  x="160.79296875" y="147.78515625" width="1.08" height="5.73" rx="0.54"    fill="url(#linear_fill_4ZeOcXDZS3Miiy_Pgm_MZ_0)" >
</rect>
<path     fill="url(#linear_fill_jcedylCSdl6V9rCbhHCbg_0)"  d="M157.177 143.41L156.547 146.35C156.147 148.2 157.557 149.94 159.447 149.94L162.867 149.94C164.757 149.94 166.157 148.19 165.757 146.35L165.127 143.41C165.037 142.98 164.927 142.56 164.797 142.14L163.157 137.06C162.877 136.19 162.067 135.6 161.157 135.6L161.157 135.6C160.237 135.6 159.427 136.19 159.147 137.06L157.517 142.14C157.387 142.56 157.267 142.98 157.177 143.41Z">
</path>
<path d="M119.998 159.6C98.3984 164.4 65.3984 178.8 36.5984 196.8C9.09465 196.8 33.5984 158.66 33.5984 154.241C33.5984 149.822 56.4875 141.6 83.9912 141.6C111.495 141.6 119.998 155.18 119.998 159.6Z"   fill="url(#linear_fill_xEy8DOOctyeukg7bZ4YN3)" >
</path>
<rect  x="116.103515625" y="134.205078125" width="0.91" height="5.08" transform="rotate(-52.07199946441739 116.103515625 134.205078125)" rx="0.455"    fill="url(#linear_fill_En7PG-VwXx4M1u-pw0705_0)" >
</rect>
<rect  x="119.7421875" y="133.48828125" width="0.68" height="3.64" rx="0.34"    fill="url(#linear_fill_5BbMJKUHPMAGkexCdGp1c_0)" >
</rect>
<path     fill="url(#linear_fill_pVIkM17tmPHT98TiRwDWN_0)"  d="M117.459 130.65L117.049 132.58C116.799 133.75 117.689 134.84 118.879 134.85L121.049 134.85C122.249 134.85 123.139 133.75 122.889 132.58L122.479 130.65C122.429 130.42 122.369 130.2 122.299 129.98L121.239 126.69C121.059 126.14 120.549 125.76 119.969 125.76L119.969 125.76C119.389 125.76 118.879 126.14 118.699 126.69L117.639 129.98C117.569 130.2 117.509 130.42 117.459 130.65Z">
</path>
<path d="M114.055 103.199L153.022 108.326L153.022 149.345L114.055 144.217L114.055 103.199Z"   fill="url(#linear_fill_svxzMrPRnqVtrSxuWTItf)" >
</path>
<path d="M153.021 108.326L120.207 114.479L120.207 159.599L153.021 149.344L153.021 108.326Z"   fill="url(#linear_fill_eAP3sCXUNHOqEaqeTb115)" >
</path>
<path d="M153.019 108.326L120.204 114.479L130.459 131.912L163.273 121.657L153.019 108.326Z"   fill="url(#linear_fill_VfhC3cGjcrhSY6GfAr36m)" >
</path>
<path d="M113.998 103.199L83.398 110.399L83.398 151.199L113.998 143.999L113.998 103.199Z"   fill="url(#linear_fill_CcYng-8qQ5QajjO9c-awI)" >
</path>
<path d="M83.2891 110.377L120.205 114.479L120.205 159.599L83.2891 151.395L83.2891 110.377Z"   fill="url(#linear_fill_DCl4cI7BrbK0Iz8witBgX)" >
</path>
<path d="M83.2886 110.377L120.205 114.479L112.514 131.911L75.5977 124.733L83.2886 110.377Z"   fill="url(#linear_fill_FPzKdSYrctrTP7HO4HeGq)" >
</path>
<path   fill="url(#linear_border_WZ0rBHz1dOvWGiKTDk5hQ_0)"  d="M76.0842 93.1074M76.0842 93.1074Q76.5373 92.937 77.0407 92.7642L76.9239 92.4237Q76.4155 92.5982 75.9575 92.7704L76.0842 93.1074ZM79.347 92.0418M79.347 92.0418Q79.9889 91.8581 80.6431 91.6886L80.5528 91.3401Q79.8942 91.5107 79.248 91.6957L79.347 92.0418ZM82.8882 91.1579M82.8882 91.1579Q83.483 91.0308 84.0715 90.9195L84.0046 90.5658Q83.4119 90.6779 82.813 90.8058L82.8882 91.1579ZM86.5138 90.5226M86.5138 90.5226Q87.1203 90.4408 87.711 90.3786L87.6733 90.0205Q87.0774 90.0833 86.4657 90.1658L86.5138 90.5226ZM90.1129 90.2043M90.1129 90.2043Q90.7202 90.1816 91.303 90.1829L91.3038 89.8229Q90.7139 89.8216 90.0995 89.8446L90.1129 90.2043ZM93.7212 90.303M93.7212 90.303Q94.3492 90.3672 94.9381 90.4655L94.9974 90.1104Q94.3972 90.0102 93.7578 89.9449L93.7212 90.303ZM97.2182 91.0228M97.2182 91.0228Q97.6753 91.1759 98.0982 91.3565L98.0982 91.3565L98.1689 91.191L98.0969 91.3559L98.3011 91.4451L98.4452 91.1152L98.2409 91.026L98.2396 91.0255L98.1689 91.191L98.2396 91.0255Q97.8033 90.8391 97.3326 90.6814L97.2182 91.0228ZM100.505 92.7015M100.505 92.7015Q100.985 93.0459 101.419 93.4311L101.658 93.1618Q101.21 92.7643 100.715 92.409L100.505 92.7015ZM102.941 95.0993M102.941 95.0993Q103.311 95.6062 103.615 96.1511L103.93 95.9757Q103.615 95.4115 103.231 94.8867L102.941 95.0993ZM104.506 98.3098M104.506 98.3098Q104.667 98.8858 104.752 99.4664L105.109 99.414Q105.02 98.8109 104.853 98.213L104.506 98.3098ZM104.759 101.877M104.759 101.877Q104.667 102.457 104.485 102.957L104.824 103.08Q105.017 102.548 105.114 101.933L104.759 101.877ZM103.063 104.728M103.063 104.728Q102.996 104.759 102.927 104.785L102.927 104.785L102.927 104.785Q102.391 104.983 101.903 105.069L101.966 105.424Q102.485 105.332 103.052 105.122L102.99 104.953L103.052 105.122L102.99 104.953L103.052 105.122Q103.134 105.092 103.214 105.055L103.063 104.728ZM99.741 104.763M99.741 104.763Q99.2874 104.502 98.9146 104.055L98.6382 104.286Q99.0521 104.782 99.5613 105.075L99.741 104.763ZM97.8791 101.992M97.8791 101.992Q97.7244 101.488 97.6066 100.903L97.2537 100.975Q97.3751 101.576 97.5349 102.098L97.8791 101.992ZM97.3413 98.3642M97.3413 98.3642Q97.3754 97.7773 97.5386 97.2075L97.1926 97.1083Q97.0183 97.7166 96.9819 98.3434L97.3413 98.3642ZM98.5947 95.1553M98.5947 95.1553Q98.9346 94.7096 99.3609 94.2889L99.108 94.0327Q98.6638 94.4711 98.3084 94.937L98.5947 95.1553ZM101.276 92.7999M101.276 92.7999Q101.765 92.4957 102.299 92.2234L102.136 91.9026Q101.588 92.1819 101.086 92.4942L101.276 92.7999ZM104.509 91.3049M104.509 91.3049Q105.088 91.1132 105.678 90.9644L105.59 90.6153Q104.987 90.7673 104.396 90.9631L104.509 91.3049ZM108.05 90.5537M108.05 90.5537Q108.633 90.4998 109.188 90.4973L109.186 90.1373Q108.615 90.1399 108.016 90.1952L108.05 90.5537ZM111.396 90.7243M111.396 90.7243Q112.035 90.8592 112.639 91.0699L112.758 90.73Q112.132 90.5117 111.47 90.372L111.396 90.7243ZM114.773 92.132M114.773 92.132Q115.251 92.4538 115.684 92.8342L115.921 92.564Q115.472 92.1682 114.974 91.8333L114.773 92.132ZM117.229 94.5957M117.229 94.5957Q117.552 95.0728 117.829 95.6011L118.148 95.4339Q117.861 94.8877 117.527 94.3937L117.229 94.5957ZM118.705 97.7666M118.705 97.7666Q118.874 98.3236 119.005 98.9195L119.357 98.8424Q119.223 98.2327 119.05 97.6622L118.705 97.7666ZM119.358 101.26M119.358 101.26Q119.409 101.822 119.432 102.411L119.792 102.397Q119.768 101.799 119.717 101.227L119.358 101.26ZM119.412 104.943M119.412 104.943Q119.385 105.473 119.34 106.021L119.698 106.051Q119.744 105.497 119.772 104.961L119.412 104.943ZM119.076 108.333M119.076 108.333Q118.989 108.941 118.882 109.569L119.237 109.629Q119.345 108.997 119.433 108.384L119.076 108.333ZM76.2008 92.9437C76.2034 92.8443 76.125 92.7616 76.0257 92.7589C75.9263 92.7563 75.8436 92.8347 75.8409 92.9341C75.8382 93.0334 75.9166 93.1161 76.016 93.1188C76.1154 93.1215 76.1981 93.0431 76.2008 92.9437ZM118.98 111.006C118.982 110.906 118.904 110.823 118.805 110.821C118.705 110.818 118.623 110.896 118.62 110.996C118.617 111.095 118.696 111.178 118.795 111.181C118.894 111.183 118.977 111.105 118.98 111.006Z">
</path>
<path   fill="url(#linear_border_5a0DsvrXXE71Ds1jveHac_0)"  d="M130.436 110.35M130.436 110.35Q130.609 109.898 130.815 109.407L130.482 109.268Q130.275 109.764 130.1 110.221L130.436 110.35ZM131.806 107.21M131.806 107.21Q132.098 106.604 132.409 105.998L132.089 105.833Q131.776 106.443 131.481 107.054L131.806 107.21ZM133.508 103.973M133.508 103.973Q133.809 103.447 134.118 102.935L133.809 102.749Q133.498 103.264 133.195 103.795L133.508 103.973ZM135.452 100.851M135.452 100.851Q135.796 100.345 136.145 99.8635L135.853 99.6523Q135.501 100.138 135.154 100.649L135.452 100.851ZM137.623 97.9602M137.623 97.9602Q138.013 97.4933 138.405 97.0607L138.138 96.819Q137.741 97.2569 137.346 97.7294L137.623 97.9602ZM140.105 95.3548M140.105 95.3548Q140.575 94.9305 141.045 94.5581L140.821 94.276Q140.342 94.6556 139.864 95.0876L140.105 95.3548ZM142.999 93.2331M142.999 93.2331Q143.506 92.9483 144.01 92.7259L143.864 92.3966Q143.344 92.626 142.823 92.9194L142.999 93.2331ZM146.431 91.9325M146.431 91.9325Q147.015 91.8056 147.601 91.7401L147.561 91.3823Q146.957 91.4498 146.354 91.5807L146.431 91.9325ZM149.828 91.7152M149.828 91.7152Q150.458 91.7724 151.076 91.9025L151.15 91.5502Q150.512 91.4158 149.86 91.3567L149.828 91.7152ZM153.338 92.6482M153.338 92.6482Q153.852 92.884 154.332 93.1707L154.517 92.8615Q154.019 92.5649 153.488 92.321L153.338 92.6482ZM156.29 94.7055M156.29 94.7055Q156.696 95.1242 157.012 95.5658L157.305 95.3565Q156.973 94.893 156.549 94.455L156.29 94.7055ZM157.907 97.7734M157.907 97.7734Q157.938 98.2729 157.778 98.6843L157.946 98.7496L157.778 98.6843L157.946 98.7496L157.778 98.6843Q157.755 98.7444 157.73 98.803L158.064 98.9398Q158.089 98.8781 158.113 98.815L158.113 98.815L158.113 98.815Q158.302 98.3297 158.266 97.7511L157.907 97.7734ZM156.394 100.649M156.394 100.649Q155.928 100.983 155.363 101.098L155.435 101.451Q156.075 101.32 156.604 100.941L156.394 100.649ZM153.125 100.855M153.125 100.855Q152.626 100.681 152.084 100.408L151.922 100.73Q152.485 101.014 153.006 101.195L153.125 100.855ZM150.026 99.1305M150.026 99.1305Q149.848 99.0018 149.667 98.8651L149.559 99.0087L149.667 98.8651L149.559 99.0087L149.667 98.8651Q149.354 98.6282 149.07 98.3464L148.816 98.602Q149.117 98.9009 149.45 99.1523L149.45 99.1523L149.45 99.1523Q149.634 99.2913 149.815 99.4221L150.026 99.1305ZM147.722 96.4212M147.722 96.4212Q147.465 95.8864 147.275 95.2916L146.932 95.4011Q147.129 96.0198 147.397 96.5773L147.722 96.4212ZM146.824 92.9846M146.824 92.9846Q146.773 92.3895 146.783 91.7829L146.423 91.777Q146.413 92.4019 146.465 93.0151L146.824 92.9846ZM147.064 89.3754M147.064 89.3754Q147.195 88.7817 147.384 88.2221L147.043 88.1073Q146.848 88.6852 146.713 89.2977L147.064 89.3754ZM148.398 86.0981M148.398 86.0981Q148.74 85.5737 149.14 85.1422L148.875 84.8977Q148.456 85.3514 148.096 85.9013L148.398 86.0981ZM151.009 83.7906M151.009 83.7906Q151.557 83.5492 152.144 83.3929L152.051 83.045Q151.437 83.2085 150.864 83.4611L151.009 83.7906ZM154.47 83.1087M154.47 83.1087Q155.054 83.1135 155.658 83.1876L155.702 82.8303Q155.077 82.7536 154.473 82.7488L154.47 83.1087ZM158.164 83.7731M158.164 83.7731Q158.766 83.9795 159.342 84.2393L159.49 83.9112Q158.899 83.6444 158.281 83.4325L158.164 83.7731ZM130.393 110.156C130.321 110.087 130.207 110.089 130.138 110.161C130.069 110.232 130.071 110.346 130.143 110.415C130.214 110.484 130.328 110.482 130.397 110.411C130.466 110.339 130.464 110.226 130.393 110.156ZM161.083 84.7855C161.011 84.7165 160.897 84.7184 160.828 84.7899C160.759 84.8614 160.761 84.9753 160.833 85.0444C160.904 85.1135 161.018 85.1116 161.087 85.0401C161.156 84.9686 161.154 84.8546 161.083 84.7855Z">
</path>
<path d="M127.898 81.9974C129.343 84.6791 132.124 87.2875 137.125 88.3996C134.886 87.8947 130.169 85.7919 128.405 81.3907C128.559 81.2521 128.729 81.1309 128.911 81.0303L129.331 80.7903C129.461 80.7103 129.591 80.6503 129.741 80.6103C131.161 80.2003 133.911 80.1503 135.071 82.8303C136.601 86.3703 137.181 86.5603 137.941 87.1503C138.551 87.6203 138.831 88.1303 138.901 88.3303C138.201 89.0503 135.911 90.3703 132.391 89.9003C128.039 89.3167 125.712 84.9851 127.898 81.9974Z" fill-rule="evenodd"  fill="url(#linear_fill_UkIXTbWlob-jcvPdSsSrI)" >
</path>
<path d="M82.4405 91.0969C80.1593 91.0094 77.4182 91.8117 74.7955 94.6191C75.9762 93.3681 79.1279 91.1182 82.6484 91.6578C82.6834 91.8168 82.6983 91.98 82.6912 92.1437L82.6848 92.4302C82.6876 92.5828 82.6732 92.7252 82.6314 92.8747C82.3324 93.9523 81.3196 95.6885 79.1824 95.4144C76.3157 95.0583 75.968 95.3524 75.2943 95.6283C74.7505 95.8416 74.3165 95.8293 74.1669 95.7876C73.9661 95.0653 73.9875 93.0808 75.6305 90.985C77.6771 88.3941 81.3704 88.5434 82.4405 91.0969Z" fill-rule="evenodd"  fill="url(#linear_fill_MawPYc--YK0i50YZOqEEX)" >
</path>
</g>
<defs>
<clipPath id="clip-path-dHjai0SgXnT3MQcbMYnyw">
<path d="M0 240L240 240L240 0L0 0L0 240Z" fill="white"/>
</clipPath>
<linearGradient id="linear_fill_gsv67f_FuvCAyBN8q3OKy" x1="119.99999258341973" y1="4.19999731510881" x2="119.99999258341973" y2="188.9999948367477" gradientUnits="userSpaceOnUse">
<stop offset="0" stop-color="#E5F0FC"  />
<stop offset="1" stop-color="#FFFFFF" stop-opacity="0" />
</linearGradient>
<linearGradient id="linear_fill_-1nWvss4jxzMOMhBkmMoG" x1="82.09539794921875" y1="41.378173828125" x2="84.4539794921875" y2="74.4034423828125" gradientUnits="userSpaceOnUse">
<stop offset="0" stop-color="#FFFFFF"  />
<stop offset="1" stop-color="#FFFFFF" stop-opacity="0" />
</linearGradient>
<linearGradient id="linear_fill_8SvQMAilG3ApC2T7fP8Rt" x1="177.82708740234375" y1="53.890838623046875" x2="176.87640380859375" y2="67.19821166992188" gradientUnits="userSpaceOnUse">
<stop offset="0" stop-color="#FFFFFF"  />
<stop offset="1" stop-color="#FFFFFF" stop-opacity="0" />
</linearGradient>
<linearGradient id="linear_fill_n0cGMHZ7hPaTev_msREcF" x1="153.82708740234375" y1="65.89083862304688" x2="152.87640380859375" y2="79.19821166992188" gradientUnits="userSpaceOnUse">
<stop offset="0" stop-color="#FFFFFF"  />
<stop offset="1" stop-color="#FFFFFF" stop-opacity="0" />
</linearGradient>
<linearGradient id="linear_fill_SeX6jOMMy6Y6vpyVs4mnI" x1="120" y1="142.19955444335938" x2="120" y2="187.80059814453125" gradientUnits="userSpaceOnUse">
<stop offset="0" stop-color="#EBF2F9"  />
<stop offset="1" stop-color="#FFFFFF" stop-opacity="0" />
</linearGradient>
<linearGradient id="linear_fill_QPmK-ihZX-dxNlZw6cyag" x1="0.9520392701547149" y1="7.239562857123429" x2="21.86694600555931" y2="1.16112824474649" gradientUnits="userSpaceOnUse">
<stop offset="0" stop-color="#EFF4FB"  />
<stop offset="1" stop-color="#EFF4FB" stop-opacity="0" />
</linearGradient>
<linearGradient id="linear_fill_w2kVrUbsDqJ-VLgBj3V-z" x1="190.79570822993443" y1="142.07222216356155" x2="185.71952316532935" y2="145.93609726495708" gradientUnits="userSpaceOnUse">
<stop offset="0" stop-color="#EFF4FB"  />
<stop offset="1" stop-color="#EFF4FB" stop-opacity="0" />
</linearGradient>
<linearGradient id="linear_fill_X3MEwHfJgRbOYrgXPJAtX" x1="8.410335196418554" y1="1.0337336528559027" x2="-5.042987422562762" y2="7.277870951116774" gradientUnits="userSpaceOnUse">
<stop offset="0" stop-color="#EFF4FB"  />
<stop offset="1" stop-color="#EFF4FB" stop-opacity="0" />
</linearGradient>
<linearGradient id="linear_fill_LCX66c5KQDN43foBFCUGX" x1="37.60248540633588" y1="149.13086523768354" x2="43.133088595250065" y2="151.75588414004127" gradientUnits="userSpaceOnUse">
<stop offset="0" stop-color="#EFF4FB"  />
<stop offset="1" stop-color="#EFF4FB" stop-opacity="0" />
</linearGradient>
<linearGradient id="linear_fill_VlpnHT9VdtuP-CsqQQiGg" x1="13.664679418728333" y1="1.9241229058491203" x2="-8.193586204666861" y2="13.546543797012022" gradientUnits="userSpaceOnUse">
<stop offset="0" stop-color="#EFF4FB"  />
<stop offset="1" stop-color="#EFF4FB" stop-opacity="0" />
</linearGradient>
<linearGradient id="linear_fill_AfwiF80H2RuxAn8nlzYAb" x1="6.28659864279576" y1="0.8366351030447106" x2="-3.769556996945807" y2="5.890223556437176" gradientUnits="userSpaceOnUse">
<stop offset="0" stop-color="#EFF4FB"  />
<stop offset="1" stop-color="#EFF4FB" stop-opacity="0" />
</linearGradient>
<linearGradient id="linear_fill_iRu96Q1l76tzdjEt2mCbz_0" x1="53.461765014454336" y1="149.94517469247083" x2="53.35703125565742" y2="155.88007780441606" gradientUnits="userSpaceOnUse">
<stop offset="0" stop-color="#DFECFC" stop-opacity="0" />
<stop offset="1" stop-color="#DFECFC"  />
</linearGradient>
<linearGradient id="linear_fill_XkBQi597bW8RJhYLDfHur_0" x1="58.727578125" y1="140.055859375" x2="58.727578125" y2="144.35960924673824" gradientUnits="userSpaceOnUse">
<stop offset="0" stop-color="#B5C4DD"  />
<stop offset="1" stop-color="#93A6C8"  />
</linearGradient>
<linearGradient id="linear_fill_90RuamvStncWRNu5rUfGC_0" x1="58.7939453125" y1="127.10494995117188" x2="58.7939453125" y2="139.2015380859375" gradientUnits="userSpaceOnUse">
<stop offset="0" stop-color="#EAF2FD"  />
<stop offset="1" stop-color="#D2E1F4"  />
</linearGradient>
<linearGradient id="linear_fill_vMxexq_XBaG1QbFWuBfIb_0" x1="171.86711957382255" y1="139.3421186416946" x2="171.78507812943164" y2="143.97945287450648" gradientUnits="userSpaceOnUse">
<stop offset="0" stop-color="#DFECFC" stop-opacity="0" />
<stop offset="1" stop-color="#DFECFC"  />
</linearGradient>
<linearGradient id="linear_fill_gKN0SWl9C296aE9HlNLdG_0" x1="176.013515625" y1="131.9140625" x2="176.013515625" y2="134.93906240984796" gradientUnits="userSpaceOnUse">
<stop offset="0" stop-color="#B5C4DD"  />
<stop offset="1" stop-color="#93A6C8"  />
</linearGradient>
<linearGradient id="linear_fill_5SEzu5jKDJOxjA16Un5hR_0" x1="176.06304931640625" y1="122.81729125976562" x2="176.06304931640625" y2="131.31195068359375" gradientUnits="userSpaceOnUse">
<stop offset="0" stop-color="#EAF2FD"  />
<stop offset="1" stop-color="#D2E1F4"  />
</linearGradient>
<linearGradient id="linear_fill_y3lYtYd-56d3lkSJUCkse_0" x1="156.50694345074982" y1="158.63760190012547" x2="156.41093750518596" y2="164.07117158149646" gradientUnits="userSpaceOnUse">
<stop offset="0" stop-color="#DFECFC" stop-opacity="0" />
<stop offset="1" stop-color="#DFECFC"  />
</linearGradient>
<linearGradient id="linear_fill_4ZeOcXDZS3Miiy_Pgm_MZ_0" x1="161.33296875" y1="149.57578125" x2="161.33296875" y2="153.51515613259747" gradientUnits="userSpaceOnUse">
<stop offset="0" stop-color="#B5C4DD"  />
<stop offset="1" stop-color="#93A6C8"  />
</linearGradient>
<linearGradient id="linear_fill_jcedylCSdl6V9rCbhHCbg_0" x1="161.3914794921875" y1="137.71090698242188" x2="161.3914794921875" y2="148.79495239257812" gradientUnits="userSpaceOnUse">
<stop offset="0" stop-color="#EAF2FD"  />
<stop offset="1" stop-color="#D2E1F4"  />
</linearGradient>
<linearGradient id="linear_fill_xEy8DOOctyeukg7bZ4YN3" x1="154.53607177734375" y1="154.359619140625" x2="69.16766357421875" y2="152.03961181640625" gradientUnits="userSpaceOnUse">
<stop offset="0" stop-color="#BBD1F0"  />
<stop offset="1" stop-color="#E9F3FD" stop-opacity="0" />
</linearGradient>
<linearGradient id="linear_fill_En7PG-VwXx4M1u-pw0705_0" x1="116.61146436147413" y1="135.53982229428595" x2="116.55851562786013" y2="139.2850779226936" gradientUnits="userSpaceOnUse">
<stop offset="0" stop-color="#DFECFC" stop-opacity="0" />
<stop offset="1" stop-color="#DFECFC"  />
</linearGradient>
<linearGradient id="linear_fill_5BbMJKUHPMAGkexCdGp1c_0" x1="120.0821875" y1="134.62578125" x2="120.0821875" y2="137.1282811754197" gradientUnits="userSpaceOnUse">
<stop offset="0" stop-color="#B5C4DD"  />
<stop offset="1" stop-color="#93A6C8"  />
</linearGradient>
<linearGradient id="linear_fill_pVIkM17tmPHT98TiRwDWN_0" x1="119.96856689453125" y1="122.58004760742188" x2="119.96856689453125" y2="134.84976196289062" gradientUnits="userSpaceOnUse">
<stop offset="0" stop-color="#EBF3FE" stop-opacity="0.6" />
<stop offset="1" stop-color="#D1E0F3"  />
</linearGradient>
<linearGradient id="linear_fill_svxzMrPRnqVtrSxuWTItf" x1="133.2015380859375" y1="9.589996337890625" x2="130.8013916015625" y2="191.40789794921875" gradientUnits="userSpaceOnUse">
<stop offset="0" stop-color="#B1C4DF"  />
<stop offset="1" stop-color="#E7EFFA"  />
</linearGradient>
<linearGradient id="linear_fill_eAP3sCXUNHOqEaqeTb115" x1="-61.1705322265625" y1="73.20077514648438" x2="173.39697265625" y2="148.7967529296875" gradientUnits="userSpaceOnUse">
<stop offset="0" stop-color="#B1C4DF"  />
<stop offset="1" stop-color="#E7EFFA"  />
</linearGradient>
<linearGradient id="linear_fill_VfhC3cGjcrhSY6GfAr36m" x1="127.196533203125" y1="89.395263671875" x2="169.79742431640625" y2="168.61053466796875" gradientUnits="userSpaceOnUse">
<stop offset="0.14576007425785065" stop-color="#FFFFFF"  />
<stop offset="1" stop-color="#D4E0F1"  />
</linearGradient>
<linearGradient id="linear_fill_CcYng-8qQ5QajjO9c-awI" x1="105.5980224609375" y1="235.19921875" x2="103.79803466796875" y2="88.19921875" gradientUnits="userSpaceOnUse">
<stop offset="0.12990908324718475" stop-color="#B1C4DF"  />
<stop offset="1" stop-color="#E7EFFA"  />
</linearGradient>
<linearGradient id="linear_fill_DCl4cI7BrbK0Iz8witBgX" x1="98.99957275390625" y1="42.001312255859375" x2="113.4010009765625" y2="221.99468994140625" gradientUnits="userSpaceOnUse">
<stop offset="0" stop-color="#B1C4DF"  />
<stop offset="1" stop-color="#E7EFFA"  />
</linearGradient>
<linearGradient id="linear_fill_FPzKdSYrctrTP7HO4HeGq" x1="101.999267578125" y1="53.410797119140625" x2="93.5987548828125" y2="160.78814697265625" gradientUnits="userSpaceOnUse">
<stop offset="0" stop-color="#FFFFFF"  />
<stop offset="1" stop-color="#E5F0FC"  />
</linearGradient>
<linearGradient id="linear_border_WZ0rBHz1dOvWGiKTDk5hQ_0" x1="70.4249267578125" y1="91.59149169921875" x2="117.60498046875" y2="98.52899169921875" gradientUnits="userSpaceOnUse">
<stop offset="0" stop-color="#EBF3FE"  />
<stop offset="1" stop-color="#C4DBFA"  />
</linearGradient>
<linearGradient id="linear_border_5a0DsvrXXE71Ds1jveHac_0" x1="174.5966796875" y1="77.39920043945312" x2="127.19805908203125" y2="116.39892578125" gradientUnits="userSpaceOnUse">
<stop offset="0" stop-color="#EBF3FE"  />
<stop offset="1" stop-color="#D2E1F5"  />
</linearGradient>
<linearGradient id="linear_fill_UkIXTbWlob-jcvPdSsSrI" x1="134.0706787109375" y1="94.79769897460938" x2="129.8668212890625" y2="74.23291015625" gradientUnits="userSpaceOnUse">
<stop offset="0" stop-color="#BED3F2"  />
<stop offset="1" stop-color="#FFFFFF"  />
</linearGradient>
<linearGradient id="linear_fill_MawPYc--YK0i50YZOqEEX" x1="69.21875" y1="89.04537963867188" x2="86.72332763671875" y2="95.32821655273438" gradientUnits="userSpaceOnUse">
<stop offset="0" stop-color="#FFFFFF"  />
<stop offset="1" stop-color="#BED3F2"  />
</linearGradient>
</defs>
</svg>
