<?xml version="1.0" standalone="no"?><!DOCTYPE svg PUBLIC "-//W3C//DTD SVG 1.1//EN" "http://www.w3.org/Graphics/SVG/1.1/DTD/svg11.dtd"><svg t="1720284196099" class="icon" viewBox="0 0 1024 1024" version="1.1" xmlns="http://www.w3.org/2000/svg" p-id="44392" xmlns:xlink="http://www.w3.org/1999/xlink" width="32" height="32"><path d="M512 0C229.2736 0 0 229.2736 0 512s229.2736 512 512 512 512-229.2736 512-512S794.7264 0 512 0z m96.9728 819.2c56.1152-122.88 18.7392-283.5456-84.1728-359.2192 9.3184 37.7856 0 122.88-46.7968 160.6656 9.3184-47.3088-18.7392-85.0944-18.7392-85.0944s-9.3184 56.7296-37.376 103.936c-28.0576 47.3088-46.7968 94.5152-9.3184 179.6096-121.5488-66.1504-149.6064-141.824-140.288-236.3392 9.3184-75.5712 65.4336-132.3008 65.4336-198.4512 28.0576 37.7856 28.0576 66.1504 28.0576 103.936 56.1152-85.0944 112.2304-189.0304 102.8096-283.5456 0 0 112.2304 37.7856 158.9248 226.816 28.0576-18.944 28.0576-75.5712 18.7392-113.4592 37.4784 28.5696 261.9392 312.1152-37.2736 501.1456z" fill="#6C5DD3" p-id="44393"></path></svg>