<svg xmlns="http://www.w3.org/2000/svg" xmlns:xlink="http://www.w3.org/1999/xlink" width="36" height="36" viewBox="0 0 36 36" fill="none">
<path   fill-rule="evenodd"  fill="#1D2027"  d="M18 28.9456C19.6569 28.9456 21 27.6025 21 25.9456C21 24.2888 19.6569 22.9456 18 22.9456C16.3431 22.9456 15 24.2888 15 25.9456C15 27.6025 16.3431 28.9456 18 28.9456ZM4.5 22.6638L4.5 28.9456C4.5 29.774 5.17157 30.4456 6 30.4456L12 30.4456L12 25.9456C12 22.6319 14.6863 19.9456 18 19.9456C21.3137 19.9456 24 22.6319 24 25.9456L24 30.4456L30 30.4456C30.8284 30.4456 31.5 29.774 31.5 28.9456L31.5 16.3819C31.5 15.9593 31.3217 15.5563 31.009 15.272L20.018 5.28018C18.8738 4.23994 17.1262 4.23994 15.982 5.28018L4.99099 15.272C4.67828 15.5563 4.5 15.9593 4.5 16.3819L4.5 22.6638Z">
</path>
<path     fill="url(#linear_fill_0_91_0)"  d="M18 28.9456C19.6569 28.9456 21 27.6025 21 25.9456C21 24.2888 19.6569 22.9456 18 22.9456C16.3431 22.9456 15 24.2888 15 25.9456C15 27.6025 16.3431 28.9456 18 28.9456Z">
</path>
<defs>
<radialGradient id="linear_fill_0_91_0" cx="0" cy="0" r="1" gradientTransform="translate(21.083648681640625 29.0098876953125) rotate(-47.02779783211702) scale(7.94990734842002, 6.743122090271876)" gradientUnits="userSpaceOnUse">
<stop offset="0" stop-color="#13C93E"  />
<stop offset="1" stop-color="#ADE446"  />
</radialGradient>
</defs>
</svg>
