<svg xmlns="http://www.w3.org/2000/svg" xmlns:xlink="http://www.w3.org/1999/xlink" width="32" height="32" viewBox="0 0 32 32" fill="none">
<path d="M3.33325 4L25.9999 4C25.9999 4 28.6666 5.33333 28.6666 8.66667C28.6666 12 25.9999 13.3333 25.9999 13.3333L3.33325 13.3333C3.33325 13.3333 5.99992 12 5.99992 8.66667C5.99992 5.33333 3.33325 4 3.33325 4Z" stroke="#6C5DD3" stroke-width="2.6666666666666665" stroke-linejoin="round" stroke-linecap="round" >
</path>
<path d="M28.6666 18.6667L5.99992 18.6667C5.99992 18.6667 3.33325 20 3.33325 23.3334C3.33325 26.6667 5.99992 28 5.99992 28L28.6666 28C28.6666 28 25.9999 26.6667 25.9999 23.3334C25.9999 20 28.6666 18.6667 28.6666 18.6667Z" stroke="#6C5DD3" stroke-width="2.6666666666666665" stroke-linejoin="round" stroke-linecap="round" >
</path>
</svg>
