<svg xmlns="http://www.w3.org/2000/svg" xmlns:xlink="http://www.w3.org/1999/xlink" width="24" height="24" viewBox="0 0 24 24" fill="none">
<path d="M12 2C6.48 2 2 6.48 2 12C2 17.52 6.48 22 12 22C17.52 22 22 17.52 22 12C22 6.48 17.52 2 12 2ZM16 13L13 13L13 16C13 16.55 12.55 17 12 17C11.45 17 11 16.55 11 16L11 13L8 13C7.45 13 7 12.55 7 12C7 11.45 7.45 11 8 11L11 11L11 8C11 7.45 11.45 7 12 7C12.55 7 13 7.45 13 8L13 11L16 11C16.55 11 17 11.45 17 12C17 12.55 16.55 13 16 13Z" fill-rule="evenodd"  fill="#FFFFFF" >
</path>
</svg>
