<?xml version="1.0" standalone="no"?><!DOCTYPE svg PUBLIC "-//W3C//DTD SVG 1.1//EN" "http://www.w3.org/Graphics/SVG/1.1/DTD/svg11.dtd"><svg t="1720283570805" class="icon" viewBox="0 0 1024 1024" version="1.1" xmlns="http://www.w3.org/2000/svg" p-id="17262" xmlns:xlink="http://www.w3.org/1999/xlink" width="32" height="32"><path d="M384.278 24.596H124.907c-60.509 0-109.733 49.232-109.733 109.728v738.19c0 60.48 49.226 109.73 109.733 109.73h259.37c60.51 0 109.735-49.252 109.735-109.73V134.325c0.002-60.494-49.224-109.729-109.734-109.729z m49.88 847.919c0 27.512-22.376 49.878-49.88 49.878H124.906c-27.503 0-49.88-22.366-49.88-49.878v-738.19c0-27.508 22.378-49.878 49.88-49.878h259.37c27.506 0 49.88 22.369 49.88 49.878v738.19zM903.022 24.596H643.65c-60.506 0-109.733 49.232-109.733 109.728v738.19c0 60.48 49.227 109.73 109.733 109.73h259.372c60.508 0 109.732-49.252 109.732-109.73V134.325c0.001-60.494-49.224-109.729-109.732-109.729zM952.9 872.515c0 27.512-22.375 49.878-49.877 49.878H643.65c-27.501 0-49.879-22.366-49.879-49.878V543.316h359.129v329.199h-0.001z m0-389.049H593.772v-349.14c0-27.51 22.378-49.879 49.88-49.879h259.37c27.503 0 49.878 22.369 49.878 49.878v349.141zM114.93 124.351h279.323v59.85H114.931v-59.85z m0 99.754h279.323v59.85H114.931v-59.85z m0 99.751h279.323v59.855H114.931v-59.855z m560.314 49.879c-19.298 0-34.913 15.644-34.913 34.914s15.615 34.911 34.913 34.911c19.27 0 34.914-15.642 34.914-34.91s-15.643-34.915-34.914-34.915z m0 289.3c19.27 0 34.914-15.667 34.914-34.915 0-19.289-15.643-34.914-34.914-34.912-19.298 0-34.913 15.625-34.913 34.912 0 19.248 15.615 34.915 34.913 34.915z" p-id="17263" fill="#6C5DD3"></path></svg>