<?xml version="1.0" standalone="no"?><!DOCTYPE svg PUBLIC "-//W3C//DTD SVG 1.1//EN" "http://www.w3.org/Graphics/SVG/1.1/DTD/svg11.dtd"><svg t="1720283030588" class="icon" viewBox="0 0 1024 1024" version="1.1" xmlns="http://www.w3.org/2000/svg" p-id="2651" xmlns:xlink="http://www.w3.org/1999/xlink" width="32" height="32"><path d="M1012.931 934.271l-0.928-435.606c0-1.471-0.058-2.923-0.149-4.362 1.097-6.726-0.439-13.413-4.733-20.414-6.712-15.761-19.759-26.433-35.447-26.433-1.556 0-3.095 0.113-4.617 0.318-14.091-1.246-28.605 3.593-39.456 14.569L778.799 575.491c-0.059-34.712-0.1-57.124-0.1-57.124 0-48.424-39.988-87.648-87.268-87.648h-14.756c61.227-39.115 101.975-108.708 101.975-188.064 0-122.32-96.821-221.486-216.265-221.486-67.064 0-126.991 31.265-166.656 80.335-39.668-49.07-99.599-80.335-166.659-80.335-119.435 0-216.256 99.166-216.256 221.486 0 79.356 40.748 148.95 101.972 188.064H98.081c-47.263 0-85.55 39.225-85.55 87.648v403.835c0 48.408 38.287 87.631 85.55 87.631 0 0 519.397 0.25 601.504 0.25 77.47 0 79.651-88.715 79.651-88.715 0-15.003-0.011-33.727-0.028-54.823L928.251 976.11c19.645 19.887 51.3 19.688 70.716-0.433 11.584-12.024 15.781-21.28 13.104-31.017 0.563-3.354 0.86-6.829 0.86-10.389zM570.328 120.717c68.893 0 124.749 57.193 124.749 127.771 0 70.545-55.856 127.738-124.749 127.738-68.876 0-124.732-57.193-124.732-127.738 0-70.578 55.856-127.771 124.732-127.771zM395.721 383.81c14.847 18.371 32.54 34.235 52.377 46.909H343.357c19.834-12.672 37.517-28.545 52.364-46.909zM97.698 248.488c0-70.578 55.848-127.771 124.741-127.771 63.958 0 116.663 49.296 123.887 112.83a231.297 231.297 0 0 0-0.196 9.108c0 5.588 0.207 11.126 0.604 16.611-5.345 65.501-58.948 116.961-124.295 116.961-68.893 0-124.741-57.194-124.741-127.739z m598.095 651.194c0 14.952-11.815 27.055-26.398 27.055h-546.95c-14.583 0-26.406-12.103-26.406-27.055V542.855c0-14.938 11.824-27.055 26.406-27.055h546.95c14.583 0 26.398 12.117 26.398 27.055v356.827z m83.293-138.805c-0.034-24.643-0.07-49.654-0.107-73.79 0.325-0.319 0.655-0.636 0.974-0.958l148.869-114.58 0.337 300.971-150.073-111.643z" fill="#6C5DD3" p-id="2652"></path></svg>