<?xml version="1.0" standalone="no"?><!DOCTYPE svg PUBLIC "-//W3C//DTD SVG 1.1//EN" "http://www.w3.org/Graphics/SVG/1.1/DTD/svg11.dtd"><svg t="1720282018527" class="icon" viewBox="0 0 1051 1024" version="1.1" xmlns="http://www.w3.org/2000/svg" p-id="9465" xmlns:xlink="http://www.w3.org/1999/xlink" width="32.84375" height="32"><path d="M636.541094 968.648649a27.675676 27.675676 0 1 1 0 55.351351h-221.405405a27.675676 27.675676 0 1 1 0-55.351351h221.405405zM525.838391 193.72973a138.378378 138.378378 0 0 1 138.24 132.372756L664.21677 332.108108h83.027027a55.351351 55.351351 0 0 1 55.351351 55.351351v498.162163a55.351351 55.351351 0 0 1-55.351351 55.351351h-13.837838l29.142486 58.284973a17.103568 17.103568 0 0 1-12.786162 24.548324L747.243797 1024h-10.572108a27.675676 27.675676 0 0 1-23.026163-12.315676l-1.715891-2.988973L678.054608 940.972973H373.594499l-33.847351 67.722378a27.675676 27.675676 0 0 1-24.742054 15.304649H304.432986a17.103568 17.103568 0 0 1-15.304649-24.742054L318.270824 940.972973H304.432986a55.351351 55.351351 0 0 1-55.351351-55.351351V387.459459a55.351351 55.351351 0 0 1 55.351351-55.351351h83.027027a138.378378 138.378378 0 0 1 138.378378-138.378378z m221.405406 553.513513H304.432986v110.702703a27.675676 27.675676 0 0 0 27.675676 27.675676h387.459459a27.675676 27.675676 0 0 0 27.675676-27.675676v-110.702703z m-318.270271 27.675676a41.513514 41.513514 0 1 1 0 83.027027 41.513514 41.513514 0 0 1 0-83.027027z m193.72973 0a41.513514 41.513514 0 1 1 0 83.027027 41.513514 41.513514 0 0 1 0-83.027027zM525.838391 0c290.400865 0 525.837838 235.436973 525.837838 525.837838 0 103.451676-29.945081 202.502919-85.351784 287.273513a27.675676 27.675676 0 0 1-46.329081-30.277189A468.106378 468.106378 0 0 0 996.324878 525.837838c0-259.846919-210.639568-470.486486-470.486487-470.486487S55.351905 265.990919 55.351905 525.837838c0 93.156324 27.094486 182.188973 77.187459 258.297081a27.675676 27.675676 0 0 1-46.246054 30.443243A523.45773 523.45773 0 0 1 0.000554 525.837838C0.000554 235.436973 235.437526 0 525.838391 0z m193.72973 387.459459H332.108662a27.675676 27.675676 0 0 0-27.675676 27.675676v276.756757h442.810811V415.135135a27.675676 27.675676 0 0 0-27.675676-27.675676z m-193.72973-138.378378a83.027027 83.027027 0 0 0-82.888648 78.156108L442.811364 332.108108h166.054054a83.027027 83.027027 0 0 0-83.027027-83.027027z" fill="#6C5DD3" p-id="9466"></path></svg>