<svg xmlns="http://www.w3.org/2000/svg" xmlns:xlink="http://www.w3.org/1999/xlink" width="32" height="32" viewBox="0 0 32 32" fill="none">
<path d="M26.188 17.688C25.8753 17.688 25.6096 17.7973 25.391 18.016C25.1723 18.2347 25.063 18.5003 25.063 18.813L25.063 25.188C25.063 25.3547 25.0056 25.49 24.891 25.594C24.7763 25.698 24.646 25.75 24.5 25.75L6.78099 25.75C6.61433 25.75 6.47366 25.698 6.35899 25.594C6.24433 25.49 6.18699 25.3547 6.18699 25.188L6.18699 6.84401C6.18699 6.67732 6.24433 6.53666 6.35899 6.42201C6.47366 6.30732 6.61433 6.25001 6.78099 6.25001L14.719 6.25001C15.0317 6.25001 15.2973 6.14066 15.516 5.922C15.7347 5.70333 15.844 5.443 15.844 5.141C15.844 4.839 15.7347 4.57866 15.516 4.36C15.2973 4.14133 15.0317 4.032 14.719 4.032L6.78099 4.032C6.01033 4.032 5.34899 4.303 4.79699 4.845C4.24499 5.387 3.96899 6.05366 3.96899 6.84501L3.96899 25.189C3.96899 25.9597 4.24499 26.621 4.79699 27.173C5.34899 27.725 6.01033 28.001 6.78099 28.001L24.5 28.001C25.2707 28.001 25.932 27.725 26.484 27.173C27.036 26.621 27.312 25.9597 27.312 25.189L27.312 18.814C27.312 18.5013 27.2027 18.2357 26.984 18.017C26.7653 17.7983 26.4997 17.689 26.187 17.689L26.188 17.688ZM14.5 11.125C13.5627 12.5417 13 13.9583 12.812 15.375C12.77 15.6877 12.843 15.9637 13.031 16.203C13.219 16.4423 13.4587 16.583 13.75 16.625C13.792 16.6457 13.844 16.656 13.906 16.656C14.1767 16.656 14.4213 16.5623 14.64 16.375C14.8587 16.1877 14.989 15.9583 15.031 15.687C15.031 15.583 15.0623 15.4007 15.125 15.14C15.1877 14.8793 15.3337 14.4627 15.563 13.89C15.7923 13.3173 16.0737 12.7913 16.407 12.312C17.8657 10.166 20.0117 9.08266 22.845 9.06201L22.939 9.09301C23.2516 9.09301 23.5173 8.98366 23.736 8.76501C23.9547 8.54632 24.064 8.28066 24.064 7.96801L24.064 6.65501L27.22 9.62401L24.064 12.249L24.064 11.186C24.064 10.8733 23.9547 10.6077 23.736 10.389C23.5173 10.1703 23.2516 10.061 22.939 10.061C22.6263 10.061 22.3607 10.1703 22.142 10.389C21.9233 10.6077 21.814 10.8733 21.814 11.186L21.814 14.655C21.814 15.1137 22.0326 15.447 22.47 15.655C22.616 15.7177 22.7723 15.749 22.939 15.749C23.2097 15.749 23.4493 15.6657 23.658 15.499L29.596 10.561C29.846 10.3317 29.9813 10.0607 30.002 9.74801C30.002 9.39401 29.8873 9.10232 29.658 8.87301L23.72 3.217C23.366 2.88366 22.9597 2.816 22.501 3.014C22.0423 3.212 21.813 3.55066 21.813 4.03L21.813 6.87401C18.6463 7.14466 16.2087 8.56132 14.5 11.124L14.5 11.125Z"   fill="#6C5DD3" >
</path>
</svg>
