<?xml version="1.0" standalone="no"?><!DOCTYPE svg PUBLIC "-//W3C//DTD SVG 1.1//EN" "http://www.w3.org/Graphics/SVG/1.1/DTD/svg11.dtd"><svg t="1720282187488" class="icon" viewBox="0 0 1119 1024" version="1.1" xmlns="http://www.w3.org/2000/svg" p-id="13639" xmlns:xlink="http://www.w3.org/1999/xlink" width="34.96875" height="32"><path d="M1002.789965 689.88597a91.814177 91.814177 0 0 1 91.398295 87.239463l0.127964 5.054579v149.206036a91.974132 91.974132 0 0 1-86.503671 92.198069l-4.990597 0.127964h-350.301477a91.878159 91.878159 0 0 1-91.366304-87.239464l-0.127964-5.054578V782.180012a91.942141 91.942141 0 0 1 86.503671-92.166078l4.990597-0.127964h350.269486z m-544.838764 73.899215c47.410666 0 85.575932 38.901059 88.07123 87.271455l0.127964 5.054579v75.274829c0 48.946234-36.629698 89.542816-83.336561 92.198069l-4.862633 0.127964h-207.301696c-47.410666 0-85.575932-38.901059-88.07123-87.271455l-0.127964-5.054578v-75.274829c0-49.010216 36.597707-89.510825 83.336561-92.134088l4.862633-0.191946h207.301696z m-0.031991 53.169047H250.649505c-18.170889 0-33.590553 15.259708-35.318067 35.350057l-0.159955 3.838921v75.242838c0 20.634197 14.36396 37.109563 32.118967 38.965041l3.359055 0.191946h207.269705c18.138898 0 33.590553-15.291699 35.318067-35.350058l0.191946-3.806929v-75.274829c0-20.666188-14.331969-37.109563-32.150958-38.965041l-3.359055-0.191946z m544.870755-73.899216H652.520479c-20.154332 0-36.725671 15.483645-38.61314 35.350058l-0.191946 3.774938v149.206036c0 20.346278 15.419663 37.109563 35.062138 38.965041l3.742948 0.191946h350.269486c20.154332 0 36.757662-15.547627 38.61314-35.350058l0.191946-3.806929V782.180012c0-20.378269-15.355681-37.077572-35.030147-38.965041l-3.774939-0.191946zM619.633728 0c47.410666 0 85.607923 38.901059 88.07123 87.271455l0.127964 5.054578v3.199101L567.840295 670.531413c-13.116311 49.13818-39.828798 82.728733-82.152895 85.256022l-5.150551 0.159955H225.472586c-43.763691 0-69.324502-28.631947-85.51195-79.785561l-1.887469-6.270236L0 95.493143v-3.199101C0 43.379799 36.629698 2.815208 83.336562 0.191946L88.199194 0H619.665719z m0 53.169046h-8.381643a14.299978 14.299978 0 0 1-0.31991 0.95973l-1.055703 2.175388-33.20666 54.896561a12.796401 12.796401 0 0 1-17.147178 4.958605 14.012059 14.012059 0 0 1-6.142272-17.403105l1.055703-2.23937 26.232622-43.3798h-58.70349a14.299978 14.299978 0 0 1-0.31991 0.95973l-1.087694 2.207379-33.174669 54.896561a12.796401 12.796401 0 0 1-17.147178 4.958605 14.012059 14.012059 0 0 1-6.174263-17.403105l1.087694-2.23937 26.232622-43.3798h-58.70349a14.299978 14.299978 0 0 1-0.31991 0.95973l-1.087694 2.207379-33.206661 54.896561a12.796401 12.796401 0 0 1-17.115186 4.958605 14.012059 14.012059 0 0 1-6.174263-17.403105l1.087694-2.23937 26.232622-43.3798h-58.735481a14.299978 14.299978 0 0 1-0.31991 0.95973l-1.055703 2.207379-33.206661 54.896561a12.796401 12.796401 0 0 1-17.115186 4.958605 14.012059 14.012059 0 0 1-6.174263-17.403105l1.055703-2.23937 26.232622-43.3798H254.072542a14.299978 14.299978 0 0 1-0.31991 0.95973l-1.087694 2.207379-33.17467 54.896561a12.796401 12.796401 0 0 1-17.147177 4.958605 14.012059 14.012059 0 0 1-6.174263-17.403105l1.087694-2.23937 26.232622-43.3798H164.785654a14.299978 14.299978 0 0 1-0.31991 0.95973l-1.087694 2.207379-33.206661 54.896561a12.796401 12.796401 0 0 1-17.115186 4.958605 14.012059 14.012059 0 0 1-6.174264-17.403105l1.087695-2.23937 26.232622-43.3798H88.199194c-18.138898 0-33.590553 15.291699-35.318067 35.382049l-0.063982 1.055703 136.153707 566.560655c8.733544 29.847605 18.106907 43.347808 31.095254 46.131026l2.655254 0.415883 2.751226 0.127964h255.064263c14.491924 0 26.616514-13.564185 34.710238-40.020745l1.535568-5.43847 138.201131-567.808304v-1.055703c-1.535568-17.531069-13.564185-31.415164-28.695929-34.646256l-3.295074-0.511856-3.359055-0.159955z m291.278078 446.594396c49.010216 0.159955 88.998969 39.57287 90.342591 88.966978 1.343622 49.426099-36.469743 90.982411-85.351995 93.893592l-5.022587 0.127964h-166.57715a91.142366 91.142366 0 0 1-90.086663-81.353119l-0.447874-5.022588-0.159955-5.11856a91.174357 91.174357 0 0 1 85.735886-91.398294l4.958606-0.127964h166.609141z m0 53.105064h-166.609141c-19.738449 0-35.957887 15.259708-37.845356 34.006435l-0.127964 3.519011 0.063982 3.423037a38.229248 38.229248 0 0 0 34.230373 35.573995l3.678965 0.191946h166.609141a38.165266 38.165266 0 0 0 37.65341-36.501734 38.261239 38.261239 0 0 0-34.006436-39.988753l-3.678965-0.191946z" fill="#6C5DD3" p-id="13640"></path></svg>