<svg xmlns="http://www.w3.org/2000/svg" xmlns:xlink="http://www.w3.org/1999/xlink" width="32" height="32" viewBox="0 0 32 32" fill="none">
<path d="M2.66675 13.3333L16.0001 4L29.3334 13.3333L29.3334 28L2.66675 28L2.66675 13.3333Z" stroke="#6C5DD3" stroke-width="2.6666666666666665" stroke-linejoin="round" stroke-linecap="round" >
</path>
<path    stroke="#6C5DD3" stroke-width="2.6666666666666665" stroke-linejoin="round" stroke-linecap="round"  d="M8.45776 17.7909C9.4483 16.8004 10.6242 16.0147 11.9183 15.4786C13.2124 14.9426 14.5995 14.6667 16.0002 14.6667C17.401 14.6667 18.7881 14.9426 20.0822 15.4786C21.3764 16.0147 22.5522 16.8004 23.5428 17.7909">
</path>
<path    stroke="#6C5DD3" stroke-width="2.6666666666666665" stroke-linejoin="round" stroke-linecap="round"  d="M12.2285 21.5621C12.7237 21.0669 13.3117 20.674 13.9588 20.406C14.6058 20.1379 15.2994 20 15.9997 20C16.7001 20 17.3937 20.1379 18.0407 20.406C18.6878 20.674 19.2757 21.0669 19.771 21.5621">
</path>
</svg>
