<?xml version="1.0" standalone="no"?><!DOCTYPE svg PUBLIC "-//W3C//DTD SVG 1.1//EN" "http://www.w3.org/Graphics/SVG/1.1/DTD/svg11.dtd"><svg t="1720283842744" class="icon" viewBox="0 0 1024 1024" version="1.1" xmlns="http://www.w3.org/2000/svg" p-id="27138" xmlns:xlink="http://www.w3.org/1999/xlink" width="32" height="32"><path d="M493.565516 708.931761c-0.022577-36.270665-0.338662-72.518752 0.18062-108.778128 0.158042-11.808004-2.269033-28.09763 15.510704-28.71851 16.616999-0.587014 18.716702 14.3141 18.773145 26.980046 0.327373 75.374799 0.327373 150.738309 0.033866 226.113108-0.056444 12.643369-1.919083 27.47675-18.513505 27.228398-18.073244-0.282218-15.623592-16.560556-15.759056-28.35727C493.260721 785.254812 493.588094 747.065064 493.565516 708.931761zM576.198964 710.500893c0-17.113703-0.395105-34.249983 0.146753-51.341109 0.327373-10.024385 3.465638-19.597222 15.759056-20.218102 12.270841-0.62088 17.249168 8.319788 17.429787 18.502216 0.609591 36.112623 0.553147 72.259111 0.112887 108.371734-0.112887 8.940668-3.826877 17.395921-14.889825 17.632984-10.374336 0.214486-16.583133-6.919987-17.102414-15.984831-1.095006-18.919899-0.327373-37.952684-0.327373-56.951604L576.198964 710.512182zM442.043788 713.300496c0 17.22659 0.361239 34.464469-0.146753 51.679771-0.248352 9.132576-3.510793 17.700717-14.370543 18.423195-10.34047 0.688612-17.045971-6.400706-17.949068-15.431683-3.793011-38.110726-4.199405-76.390784 0.304796-114.490222 0.925675-7.856951 6.18622-14.562452 15.442972-14.494719 10.735575 0.09031 15.759056 7.710197 16.154162 16.887929 0.824077 19.100518 0.248352 38.25748 0.248352 57.391864C441.840591 713.277919 441.953478 713.277919 442.043788 713.300496zM899.801477 704.213075l-0.146753 0c0 36.338397-0.248352 72.688083 0.18062 109.02648 0.09031 8.974534-3.984919 21.425995 7.642465 25.219006 9.945364 3.251152 17.520097-5.960445 24.631992-12.327285 64.85371-58.035321 62.392768-189.932753-4.583221-245.17976-5.836269-4.820284-11.616095-11.920891-20.037482-8.669739-8.771337 3.386617-7.552155 12.609503-7.608599 20.037482C899.677301 629.617198 899.801477 666.915136 899.801477 704.213075zM128.0254 713.955242l0.09031 0c0-35.34499 0.248352-70.712556-0.146753-106.046257-0.112887-10.114695 3.578525-23.751472-8.082725-28.35727-12.293419-4.854151-22.00172 6.084621-29.215213 14.347966-43.980862 50.438011-53.350502 109.071635-35.728806 171.690177 7.981127 28.312116 19.913306 55.980774 46.82562 73.670202 18.050667 11.887025 26.336589 8.048859 26.280146-13.512601C127.968956 788.483387 128.0254 751.219314 128.0254 713.955242zM784.509756 702.531055c0-43.077764-0.338662-86.166817 0.101599-129.222004 0.428971-42.355286 16.402514-62.381479 58.249807-68.217749 20.929291-2.889913 22.645177-14.506008 21.098622-29.881248-14.84467-147.261382-103.11119-268.118443-252.901246-310.010892-165.695866-46.362782-322.39462 18.344174-407.624474 167.231132-26.314012 46.012832-40.887752 96.947547-39.894345 151.16728 0.304796 17.13628 5.74596 25.252872 24.157866 28.44758 37.783354 6.547459 51.442708 23.288634 51.634616 60.868791 0.496704 92.849741 0.09031 185.710771 0.191908 278.583089 0.022577 23.841782-7.608599 43.574468-30.276353 54.445508-23.333789 11.187124-44.962981 6.8071-64.695668-9.290618-4.41389-3.62368-9.200309-7.134472-14.381832-9.437372C24.169154 840.095425-17.034682 731.915599 29.678051 626.219292c15.781634-35.717517 38.122015-64.785977 74.110462-80.804674 20.522897-9.132576 24.677147-23.074148 24.631992-43.20194-0.237063-152.93961 70.294874-267.283078 202.801896-340.230801 166.892471-91.8902 359.037813-42.084357 471.315445 85.579804 65.790674 74.810363 96.270224 162.320538 96.021872 260.769485-0.033866 13.794819 5.237967 21.053467 17.339477 26.178547 113.812898 48.168978 127.31421 228.145078 43.992151 310.91399-30.411818 30.21991-71.875295 39.510528-107.954051 58.385272-27.928299 14.618895-65.666498-21.369551-66.863102-60.563995-1.433668-46.859486-0.338662-93.809282-0.338662-140.702635L784.509756 702.542344z" p-id="27139" fill="#6C5DD3"></path></svg>