<?xml version="1.0" standalone="no"?><!DOCTYPE svg PUBLIC "-//W3C//DTD SVG 1.1//EN" "http://www.w3.org/Graphics/SVG/1.1/DTD/svg11.dtd"><svg t="1720284329103" class="icon" viewBox="0 0 1024 1024" version="1.1" xmlns="http://www.w3.org/2000/svg" p-id="45455" xmlns:xlink="http://www.w3.org/1999/xlink" width="32" height="32"><path d="M752.94208 381.4912H30.11584V863.37024C30.11584 951.71072 102.40512 1024 190.7456 1024h401.57184c88.34048 0 160.62464-72.28928 160.62464-160.62976 133.07392 0 240.94208-107.91936 240.94208-240.94208-0.00512-133.05344-107.86816-240.93696-240.94208-240.93696m0 361.41056V501.95968c66.4064 0 120.46848 54.0672 120.46848 120.46848s-54.0672 120.4736-120.46848 120.4736M431.68256 321.2544c-46.27456 0-100.38784-15.79008-100.38784-60.2368 0-36.55168 51.45088-46.82752 116.54656-59.80672 23.21408-4.69504 58.92608-11.83232 76.288-19.1488-23.5776-8.53504-77.4912-16.22016-115.34336-21.62176C302.17216 145.2032 250.9824 136.28928 250.9824 100.39296 250.9824 29.37344 532.41856 0 552.15616 0a20.08576 20.08576 0 0 1 0 40.15616c-59.1872 0-219.0848 32.90112-255.50336 57.9328 22.0416 8.93952 78.51008 16.94208 117.77536 22.55872 106.58816 15.24224 157.80352 24.15616 157.80352 60.05248 0 36.55168-51.45088 46.82752-116.55168 59.80672-27.34592 5.48864-72.02304 14.42816-83.6608 23.08608 4.65408 10.62912 37.38624 17.50016 59.65824 17.50016a20.08064 20.08064 0 1 1 0.00512 40.16128" fill="#6C5DD3" p-id="45456"></path></svg>