<?xml version="1.0" standalone="no"?><!DOCTYPE svg PUBLIC "-//W3C//DTD SVG 1.1//EN" "http://www.w3.org/Graphics/SVG/1.1/DTD/svg11.dtd"><svg t="1720283515409" class="icon" viewBox="0 0 1024 1024" version="1.1" xmlns="http://www.w3.org/2000/svg" p-id="15946" xmlns:xlink="http://www.w3.org/1999/xlink" width="32" height="32"><path d="M703.7952 199.68H176.0256c-26.5216 0-47.9232 21.4016-48.0256 47.8208V655.36c0 26.5216 21.504 48.0256 48.0256 48.0256h395.9808v-23.9616H176.0256a23.9616 23.9616 0 0 1-23.8592-23.9616V247.5008c0-13.1072 10.6496-23.8592 23.8592-23.9616h527.872c6.3488 0 12.4928 2.56 16.9984 7.0656s6.9632 10.5472 6.9632 16.896v60.1088h24.064v-60.1088a48.0768 48.0768 0 0 0-48.128-47.8208z" fill="#6C5DD3" p-id="15947"></path><path d="M703.7952 199.68H176.0256c-26.5216 0-47.9232 21.4016-48.0256 47.8208V655.36c0 26.5216 21.504 48.0256 48.0256 48.0256h395.9808v-23.9616H176.0256a23.9616 23.9616 0 0 1-23.8592-23.9616V247.5008c0-13.1072 10.6496-23.8592 23.8592-23.9616h527.872c6.3488 0 12.4928 2.56 16.9984 7.0656s6.9632 10.5472 6.9632 16.896v60.1088h24.064v-60.1088a48.0768 48.0768 0 0 0-48.128-47.8208z" fill="#6C5DD3" p-id="15948"></path><path d="M703.7952 199.68H176.0256c-26.5216 0-47.9232 21.4016-48.0256 47.8208V655.36c0 26.5216 21.504 48.0256 48.0256 48.0256h395.9808v-23.9616H176.0256a23.9616 23.9616 0 0 1-23.8592-23.9616V247.5008c0-13.1072 10.6496-23.8592 23.8592-23.9616h527.872c6.3488 0 12.4928 2.56 16.9984 7.0656s6.9632 10.5472 6.9632 16.896v60.1088h24.064v-60.1088a48.0768 48.0768 0 0 0-48.128-47.8208z" fill="#6C5DD3" p-id="15949"></path><path d="M523.96032 751.40096h-24.00256v-47.99488H368.03584v47.99488h-24.00256v-71.936h179.92704v71.936z m-383.7952-167.936h431.80032v23.99232H140.16512v-23.99232z m263.86432 47.99488h59.99616v24.00256h-59.99616v-24.00256z m0 0M895.82592 427.54048H595.95776v-47.99488a48.05632 48.05632 0 0 1 47.99488-47.99488h203.86816a48.05632 48.05632 0 0 1 47.99488 47.99488v47.99488z m-275.87584-24.00256h251.87328v-24.00256a23.99232 23.99232 0 0 0-23.99232-23.99232H643.90144a24.0128 24.0128 0 0 0-23.99232 23.99232l0.04096 24.00256z m0 0M847.8208 823.32672H643.90144a48.05632 48.05632 0 0 1-47.99488-47.99488v-59.94496h299.85792v59.99616a48.04608 48.04608 0 0 1-47.94368 47.94368z m-227.87072-83.92704v35.9936a23.99232 23.99232 0 0 0 23.99232 23.99232h203.86816a24.0128 24.0128 0 0 0 23.99232-23.99232v-35.9936H619.95008z m0 0" fill="#6C5DD3" p-id="15950"></path><path d="M715.88864 751.40096h59.99616v23.99232h-59.99616v-23.99232z m179.93728-24.00256h-24.00256V427.54048H619.89888v59.99616h-23.94112v-83.98848h299.86816v323.85024zM595.95776 535.47008h24.00256v191.92832h-24.00256V535.47008z m0 0" fill="#6C5DD3" p-id="15951"></path><path d="M596.0192 480.44032h23.93088v153.6h-23.93088zM559.88224 813.01504h-249.0368a31.16032 31.16032 0 0 1-31.11936-31.11936 31.15008 31.15008 0 0 1 31.11936-31.10912h249.02656a31.15008 31.15008 0 0 1 31.10912 31.10912 31.1296 31.1296 0 0 1-31.09888 31.11936z m-249.0368-37.64224a6.53312 6.53312 0 0 0 0 13.07648h249.02656a6.54336 6.54336 0 0 0 0-13.07648H310.84544z" fill="#6C5DD3" p-id="15952"></path></svg>