<?xml version="1.0" standalone="no"?><!DOCTYPE svg PUBLIC "-//W3C//DTD SVG 1.1//EN" "http://www.w3.org/Graphics/SVG/1.1/DTD/svg11.dtd"><svg t="1720283272108" class="icon" viewBox="0 0 1024 1024" version="1.1" xmlns="http://www.w3.org/2000/svg" p-id="9243" xmlns:xlink="http://www.w3.org/1999/xlink" width="32" height="32"><path d="M347.6 265.6c-4.4-10.8-6.6-22.3-6.6-34v-94.3c5.6 0 10.1-4.5 10.1-10.1V76.6c0-5.6-4.5-10.1-10.1-10.1H179.1c-5.6 0-10.1 4.5-10.1 10.1v50.6c0 5.6 4.5 10.1 10.1 10.1v94.3c0 11.7-2.2 23.1-6.6 34l-73.7 183c-0.5 1.2-0.7 2.5-0.7 3.8V947c0 5.6 4.5 10.1 10.1 10.1h303.7c5.6 0 10.1-4.5 10.1-10.1V452.3c0-1.3-0.2-2.6-0.7-3.8l-73.7-182.9zM189.2 86.7h141.7v30.4H189.2V86.7z m212.5 850.2H118.3V454.3l72.9-181.2c5.3-13.3 8.1-27.3 8.1-41.6v-94.3h121.5v94.3c0 14.3 2.7 28.3 8.1 41.6l72.9 181.2v482.6z" fill="#6C5DD3" p-id="9244"></path><path d="M895.5 469.1c0.1-0.1 0.1-0.2 0.2-0.3 20-20.1 32.4-47.9 32.4-78.4s-12.4-58.3-32.4-78.4c-0.1-0.1-0.1-0.2-0.2-0.3-0.1-0.1-0.2-0.1-0.3-0.2-20.1-20-47.9-32.4-78.4-32.4s-58.3 12.4-78.4 32.4c-0.1 0.1-0.2 0.1-0.3 0.2-0.1 0.1-0.1 0.2-0.2 0.3-20 20.1-32.4 47.9-32.4 78.4 0 14.3 2.8 27.9 7.7 40.5h-94l-56-165.2c-1.4-4.1-5.2-6.9-9.6-6.9H411.9c-5.6 0-10.1 4.5-10.1 10.1s4.5 10.1 10.1 10.1h134.5l51.4 151.8h-115c-5.6 0-10.1 4.5-10.1 10.1V947c0 5.6 4.5 10.1 10.1 10.1h344.1c5.6 0 10.1-4.5 10.1-10.1V499.8c22.5-4.1 42.6-15 58.2-30.5 0.1-0.1 0.2-0.1 0.3-0.2z m-135.6-7.6l46.7-46.7v66.1c-17.5-2-33.6-9-46.7-19.4z m-33.7-61h66.1l-46.7 46.7c-10.5-13.2-17.4-29.2-19.4-46.7z m19.4-66.9l46.7 46.7h-66.1c2-17.6 8.9-33.6 19.4-46.7z m161.6 46.6h-66.1l46.7-46.7c10.5 13.2 17.5 29.2 19.4 46.7z m-80.3-14.3v-66.1c17.5 1.9 33.6 8.9 46.7 19.4l-46.7 46.7z m-20.3 0l-46.7-46.7c13.1-10.5 29.1-17.4 46.7-19.4v66.1z m20.3 114.9v-66.1l46.7 46.7c-13.2 10.5-29.2 17.5-46.7 19.4z m14.3-80.3h66.1c-1.9 17.5-8.9 33.6-19.4 46.7l-46.7-46.7z m-24.5 536.4H492.8V451.1h111.8l151.9 448.6c1.4 4.2 5.4 6.9 9.6 6.9 1.1 0 2.2-0.2 3.3-0.5 5.3-1.8 8.1-7.5 6.3-12.8L626 451.1h97.6c4.2 6.4 8.9 12.3 14.3 17.7 0.1 0.1 0.1 0.2 0.2 0.3 0.1 0.1 0.2 0.1 0.3 0.2 20.1 20 47.9 32.4 78.4 32.4v435.2z" fill="#6C5DD3" p-id="9245"></path></svg>