<svg xmlns="http://www.w3.org/2000/svg" xmlns:xlink="http://www.w3.org/1999/xlink" width="32" height="32" viewBox="0 0 32 32" fill="none">
<path   fill="rgba(108, 93, 211, 1)"  d="M8.00008 1.33335L24.0001 1.33335C25.4728 1.33335 26.6667 2.52726 26.6667 4.00002L26.6667 28C26.6667 29.4728 25.4728 30.6667 24.0001 30.6667L8.00008 30.6667C6.52732 30.6667 5.33341 29.4728 5.33341 28L5.33341 4.00002C5.33341 2.52726 6.52732 1.33335 8.00008 1.33335ZM8.00008 4.00002C8.00008 4.00002 8.00008 4.00002 8.00008 4.00002L8.00008 28C8.00008 28 8.00008 28 8.00008 28L24.0001 28C24.0001 28 24.0001 28 24.0001 28L24.0001 4.00002C24.0001 4.00002 24.0001 4.00002 24.0001 4.00002L8.00008 4.00002Z">
</path>
<path    stroke="rgba(108, 93, 211, 1)" stroke-width="2.6666666666666665" stroke-linejoin="round" stroke-linecap="round"  d="M10.6667 22.6667L16.0001 22.6667">
</path>
<path    stroke="rgba(108, 93, 211, 1)" stroke-width="2.6666666666666665" stroke-linejoin="round" stroke-linecap="round"  d="M13.3333 20L13.3333 25.3333">
</path>
<rect x="10.666748046875" y="6.66668701171875" width="10.666666666666666" height="6" stroke="rgba(108, 93, 211, 1)" stroke-width="2.6666666666666665" stroke-linejoin="round"  >
</rect>
<circle cx="20.666585286458332" cy="20.000020345052082" r="1.3333333333333333"   fill="#6C5DD3" >
</circle>
<circle cx="20.666585286458332" cy="25.333333333333332" r="1.3333333333333333"   fill="#6C5DD3" >
</circle>
</svg>
