<svg xmlns="http://www.w3.org/2000/svg" xmlns:xlink="http://www.w3.org/1999/xlink" width="32" height="32" viewBox="0 0 32 32" fill="none">
<ellipse cx="9.333414713541666" cy="6.666646321614583" rx="6.666666666666666" ry="3.333333333333333" stroke="rgba(108, 93, 211, 1)" stroke-width="2.6666666666666665" stroke-linejoin="round" stroke-linecap="round" >
</ellipse>
<path    stroke="rgba(108, 93, 211, 1)" stroke-width="2.6666666666666665" stroke-linejoin="round" stroke-linecap="round"  d="M2.66675 6.66669C2.66675 6.66669 2.66675 9.49242 2.66675 11.3334C2.66675 13.1743 5.65152 14.6667 9.33341 14.6667C13.0153 14.6667 16.0001 13.1743 16.0001 11.3334C16.0001 10.243 16.0001 6.66669 16.0001 6.66669">
</path>
<path    stroke="rgba(108, 93, 211, 1)" stroke-width="2.6666666666666665" stroke-linejoin="round" stroke-linecap="round"  d="M2.66675 11.3333C2.66675 11.3333 2.66675 14.159 2.66675 16C2.66675 17.8409 5.65152 19.3333 9.33341 19.3333C13.0153 19.3333 16.0001 17.8409 16.0001 16C16.0001 14.9096 16.0001 11.3333 16.0001 11.3333">
</path>
<path    stroke="rgba(108, 93, 211, 1)" stroke-width="2.6666666666666665" stroke-linejoin="round" stroke-linecap="round"  d="M2.66675 16C2.66675 16 2.66675 18.8257 2.66675 20.6667C2.66675 22.5076 5.65152 24 9.33341 24C13.0153 24 16.0001 22.5076 16.0001 20.6667C16.0001 19.5763 16.0001 16 16.0001 16">
</path>
<path    stroke="rgba(108, 93, 211, 1)" stroke-width="2.6666666666666665" stroke-linejoin="round" stroke-linecap="round"  d="M2.66675 20.6667C2.66675 20.6667 2.66675 23.4924 2.66675 25.3334C2.66675 27.1743 5.65152 28.6667 9.33341 28.6667C13.0153 28.6667 16.0001 27.1743 16.0001 25.3334C16.0001 24.243 16.0001 20.6667 16.0001 20.6667">
</path>
<ellipse cx="22.666666666666664" cy="16.000020345052082" rx="6.666666666666666" ry="3.333333333333333" stroke="rgba(108, 93, 211, 1)" stroke-width="2.6666666666666665" stroke-linejoin="round" stroke-linecap="round" >
</ellipse>
<path    stroke="rgba(108, 93, 211, 1)" stroke-width="2.6666666666666665" stroke-linejoin="round" stroke-linecap="round"  d="M16 16C16 16 16 18.8257 16 20.6667C16 22.5076 18.9848 24 22.6667 24C26.3485 24 29.3333 22.5076 29.3333 20.6667C29.3333 19.5763 29.3333 16 29.3333 16">
</path>
<path    stroke="rgba(108, 93, 211, 1)" stroke-width="2.6666666666666665" stroke-linejoin="round" stroke-linecap="round"  d="M16 20.6667C16 20.6667 16 23.4924 16 25.3334C16 27.1743 18.9848 28.6667 22.6667 28.6667C26.3485 28.6667 29.3333 27.1743 29.3333 25.3334C29.3333 24.243 29.3333 20.6667 29.3333 20.6667">
</path>
</svg>
