<?xml version="1.0" standalone="no"?><!DOCTYPE svg PUBLIC "-//W3C//DTD SVG 1.1//EN" "http://www.w3.org/Graphics/SVG/1.1/DTD/svg11.dtd"><svg t="1720283972591" class="icon" viewBox="0 0 1024 1024" version="1.1" xmlns="http://www.w3.org/2000/svg" p-id="35827" xmlns:xlink="http://www.w3.org/1999/xlink" width="32" height="32"><path d="M74.427 161.076c0-47.801 38.849-86.728 86.728-86.728h700.36c47.803 0 86.806 38.926 86.806 86.728v336.245h74.271V161.076C1022.592 72.324 950.267 0 861.515 0h-700.36C72.324 0 0 72.324 0 161.076v336.245h74.427V161.076zM948.32 861.438c0 47.879-39.003 86.805-86.884 86.805H161.154c-47.878 0-86.806-38.926-86.806-86.805V525.27H0v336.168c0 88.83 72.324 161.153 161.154 161.153h700.282c88.908 0 161.234-72.323 161.234-161.153V525.27h-74.35v336.168z" fill="#6C5DD3" p-id="35828"></path><path d="M213.861 870.157h150.566v-36.825h-85.482v-27.87h85.482v-33.71h-85.482v-27.949h85.482v-33.71h-85.482v-27.872h85.482v-33.709h-85.482v-27.95h85.482v-33.709h-85.482V558.98h85.482v-33.787h-85.482v-27.872h85.482v-33.71h-85.482v-27.949h85.482v-33.71h-85.482v-27.794h85.482v-33.787h-85.482v-27.872h85.482v-33.787h-85.482v-27.794h85.482V217.13h-85.482v-27.871h85.482v-36.902H213.861c-21.41 0-38.849 17.362-38.849 38.849V831.386c0 21.411 17.439 38.771 38.849 38.771M759.294 446.716c16.271-21.019 30.83-45.621 42.587-72.87 11.677-27.326 19.462-54.808 23.511-81.042 4.048-26.315 4.281-51.461 1.013-74.117-3.271-22.499-10.122-42.741-20.32-58.934l-1.013 2.492-143.404 298.252L518.42 162.245l-1.091-2.492c-10.12 16.193-17.049 36.435-20.318 58.934-3.271 22.656-3.038 47.801 1.011 74.117 4.048 26.234 11.833 53.717 23.513 81.042 11.755 27.25 26.313 51.851 42.585 72.87 15.96 20.477 33.478 37.526 51.693 50.605 0.469 0.39 0.856 0.777 1.324 1.091a190.47 190.47 0 0 0 20.32 12.457l-6.852 14.401-66.097 137.488c-6.229-1.167-12.689-1.946-19.308-1.946-50.605 0-92.567 37.525-99.729 86.182h50.605c6.383-21.176 25.847-36.746 49.125-36.746 28.493 0 51.615 23.123 51.615 51.618 0 28.414-23.122 51.537-51.615 51.537-23.277 0-42.742-15.57-49.125-36.746h-50.605c7.162 48.658 49.124 86.182 99.729 86.182 55.742 0 101.051-45.23 101.051-100.973 0-33.478-16.504-63.141-41.729-81.59l57.145-119.193 57.222 119.193c-25.225 18.449-41.651 48.112-41.651 81.59 0 55.742 45.31 100.973 100.976 100.973 50.682 0 92.565-37.523 99.806-86.182h-50.682c-6.461 21.176-25.925 36.746-49.124 36.746-28.417 0-51.618-23.123-51.618-51.537 0-28.495 23.201-51.618 51.618-51.618 23.199 0 42.663 15.57 49.124 36.746h50.682c-7.24-48.656-49.124-86.182-99.806-86.182-6.696 0-13.003 0.779-19.308 1.946L692.81 525.27l-6.852-14.401a176.351 176.351 0 0 0 20.32-12.457c0.466-0.313 0.935-0.701 1.4-1.091 18.14-13.079 35.734-30.128 51.616-50.605" fill="#6C5DD3" p-id="35829"></path></svg>