<svg xmlns="http://www.w3.org/2000/svg" xmlns:xlink="http://www.w3.org/1999/xlink" width="32" height="32" viewBox="0 0 32 32" fill="none">
<path d="M12.0001 2.66669L4.00008 2.66669C3.2637 2.66669 2.66675 3.26364 2.66675 4.00002L2.66675 12C2.66675 12.7364 3.2637 13.3334 4.00008 13.3334L12.0001 13.3334C12.7365 13.3334 13.3334 12.7364 13.3334 12L13.3334 4.00002C13.3334 3.26364 12.7365 2.66669 12.0001 2.66669Z" stroke="rgba(108, 93, 211, 1)" stroke-width="2.6666666666666665" stroke-linejoin="round"  >
</path>
<path d="M12.0001 18.6667L4.00008 18.6667C3.2637 18.6667 2.66675 19.2636 2.66675 20L2.66675 28C2.66675 28.7364 3.2637 29.3334 4.00008 29.3334L12.0001 29.3334C12.7365 29.3334 13.3334 28.7364 13.3334 28L13.3334 20C13.3334 19.2636 12.7365 18.6667 12.0001 18.6667Z" stroke="rgba(108, 93, 211, 1)" stroke-width="2.6666666666666665" stroke-linejoin="round"  >
</path>
<path d="M28.0001 2.66669L20.0001 2.66669C19.2637 2.66669 18.6667 3.26364 18.6667 4.00002L18.6667 12C18.6667 12.7364 19.2637 13.3334 20.0001 13.3334L28.0001 13.3334C28.7365 13.3334 29.3334 12.7364 29.3334 12L29.3334 4.00002C29.3334 3.26364 28.7365 2.66669 28.0001 2.66669Z" stroke="rgba(108, 93, 211, 1)" stroke-width="2.6666666666666665" stroke-linejoin="round"  >
</path>
<path    stroke="rgba(108, 93, 211, 1)" stroke-width="2.6666666666666665" stroke-linejoin="round" stroke-linecap="round"  d="M18.6667 18.6667L29.3334 18.6667">
</path>
<path    stroke="rgba(108, 93, 211, 1)" stroke-width="2.6666666666666665" stroke-linejoin="round" stroke-linecap="round"  d="M24 24L29.3333 24">
</path>
<path    stroke="rgba(108, 93, 211, 1)" stroke-width="2.6666666666666665" stroke-linejoin="round" stroke-linecap="round"  d="M18.6667 29.3333L29.3334 29.3333">
</path>
</svg>
