<?xml version="1.0" standalone="no"?><!DOCTYPE svg PUBLIC "-//W3C//DTD SVG 1.1//EN" "http://www.w3.org/Graphics/SVG/1.1/DTD/svg11.dtd"><svg t="1720284104901" class="icon" viewBox="0 0 1024 1024" version="1.1" xmlns="http://www.w3.org/2000/svg" p-id="40785" xmlns:xlink="http://www.w3.org/1999/xlink" width="32" height="32"><path d="M873.875864 169.030741c0-8.725732-1.600451-16.997116-3.868097-24.997324l-3.13541-10.104125a92.107791 92.107791 0 0 0-7.95416-15.109116L511.852644 309.650409v-1.188058L172.71055 108.675118c-14.062274 16.158005-22.587438 37.250392-22.587437 60.356646V854.975399c0 50.882877 41.251519 92.13235 92.143606 92.13235H781.741467c50.883901 0 92.134397-41.250496 92.134397-92.13235V585.622788c0-0.007163 0.002047-416.592047 0-416.592047zM632.057353 651.842978c11.523451 0 20.866237 9.339716 20.866237 20.88261 0 11.501962-9.341762 20.889773-20.866237 20.889773v0.170892l-96.445586-0.010233v49.124837h-0.096191c0 11.500938-9.349949 20.842701-20.873399 20.842701-11.525498 0-20.87647-9.341762-20.87647-20.842701h-0.098238v-49.124837l-99.407034-0.076748v-0.083911c-11.521404 0-20.86419-9.345856-20.86419-20.887726 0-11.504008 9.342786-20.884656 20.86419-20.884657v-0.086981l99.407034 0.076748v-42.360783l-99.394754-0.076748v-0.107447c-11.525498 0-20.86419-9.339716-20.86419-20.86419 0-11.523451 9.338692-20.884656 20.86419-20.884656v-0.086981l99.394754 0.076748v-0.992607l-98.897427-113.888864 0.130983-0.147356c-8.628518-7.635911-9.385764-20.843724-1.7519-29.450752 7.661494-8.646937 20.850887-9.42772 29.468148-1.772367l90.547249 107.462501 88.483241-102.95586c8.614192-7.65433 21.805632-6.875594 29.469172 1.77032 7.633864 8.606005 6.876618 21.820981-1.7519 29.452799l0.130983 0.150426-93.884251 110.37176 96.456842 0.011256c11.525498 0 20.86419 9.339716 20.864191 20.865213 0 11.528568-9.339716 20.889773-20.864191 20.889773v0.190335l-96.455818-0.011256v42.360783l96.444562 0.008186z" p-id="40786" fill="#6C5DD3"></path><path d="M513.01512 262.426875L826.923506 91.825358c-14.233166-9.42772-31.28861-14.932084-49.647747-14.932084h-533.848611c-12.19781 0-23.757077 2.505054-34.362622 6.887874l303.120692 178.946579v0.150426l0.13303-0.072655 0.695848 0.411369v-0.789992h0.001024z" p-id="40787" fill="#6C5DD3"></path></svg>