<?xml version="1.0" standalone="no"?><!DOCTYPE svg PUBLIC "-//W3C//DTD SVG 1.1//EN" "http://www.w3.org/Graphics/SVG/1.1/DTD/svg11.dtd"><svg t="1720283091663" class="icon" viewBox="0 0 1024 1024" version="1.1" xmlns="http://www.w3.org/2000/svg" p-id="6537" xmlns:xlink="http://www.w3.org/1999/xlink" width="32" height="32"><path d="M63.577293 824.32c-12.8-27.648-19.456-57.344-19.456-88.064 0-114.176 92.672-206.848 206.848-206.848 114.176 0 206.848 92.672 206.848 206.848H393.817293c0-78.848-64-142.848-142.848-142.848-78.848 0-142.848 64-142.848 142.848 0 21.504 4.608 41.472 13.312 60.928L63.577293 824.32zM595.545293 546.304c-11.264 0-27.648-4.608-51.2-21.504-77.824-56.832-122.88-141.824-132.608-247.808-30.208 26.112-59.904 64-73.216 102.912-8.192 22.528-24.576 69.632-61.44 58.368-23.04-6.144-28.16-32.256-30.72-43.52-2.048-10.752-3.584-23.552-3.584-30.72 0-181.248 145.408-328.704 324.096-328.704 29.184 0 58.368 4.096 87.04 11.776 114.688-31.744 233.984-0.512 330.24 87.04 0.512 0.512 48.64 45.056 39.424 77.824l-1.536 5.632-3.584 4.608c-14.848 19.968-36.864 14.848-68.096 8.192-10.752-2.048-23.04-5.12-35.328-6.656-10.24-1.536-26.112-4.096-40.448-5.632 15.36 29.696 35.84 72.192 44.032 113.664 7.168 38.4-2.048 95.232-14.848 111.616-5.632 7.68-14.336 12.288-24.064 12.8-22.528 1.536-43.008-12.288-93.696-90.624-14.336-22.016-32.768-40.448-48.128-52.224V358.4c1.024 78.848 0.512 104.448-17.92 119.296-8.704 6.656-19.456 9.216-30.208 6.144-15.872-4.096-54.272-13.824-94.72-167.936-6.144 43.52-4.096 97.792 23.04 146.432 4.608 8.192 18.944 36.864 12.8 58.368-2.56 9.216-8.704 16.896-16.896 21.504-3.584 1.024-9.216 4.096-18.432 4.096zM475.225293 168.448l-1.536 51.2c-2.048 62.976 9.216 145.408 62.976 210.432-26.624-102.4 8.192-205.312 32.768-238.08 14.336-19.456 30.72-18.944 39.424-16.896 13.312 3.072 23.552 13.824 26.112 28.16 12.8 66.048 26.112 115.712 38.4 151.04-0.512-20.992-0.512-42.496 0-59.392 1.024-20.48 2.048-51.712 29.696-59.392 44.032-12.288 111.104 56.832 135.68 94.72 6.656 9.728 12.288 18.432 16.896 25.6 0-4.096-0.512-8.192-1.536-12.288-6.656-35.84-26.624-74.24-40.96-102.912-17.408-33.792-28.672-55.808-7.68-75.264 18.944-17.408 49.152-15.872 107.008-7.168-75.776-56.32-165.376-73.728-249.856-47.104l-9.728 3.072-9.728-3.072c-25.088-7.68-50.688-11.776-77.312-11.776-115.712 0-214.016 77.312-247.808 184.32C351.833293 239.616 394.329293 204.8 428.633293 189.44l46.592-20.992z m231.936 253.952z m135.168-205.824z" fill="#6C5DD3" p-id="6538"></path><path d="M835.673293 801.792l-63.488-8.192c6.656-49.664 9.728-100.864 9.728-153.088 0-87.04-7.68-249.344-22.528-313.856l62.464-13.824c16.896 75.776 23.552 250.88 23.552 327.68 0.512 54.784-2.56 109.056-9.728 161.28z" fill="#6C5DD3" p-id="6539"></path><path d="M887.385293 989.184H82.009293C36.441293 987.136 2.137293 952.32 0.089293 905.728c-1.536-30.72 16.896-64 43.52-81.92 79.872-52.224 236.032-108.032 435.712-108.032 39.936 0 79.872 2.048 118.784 5.632 5.12-22.016 9.728-44.544 13.312-66.56 9.728-55.296 23.552-162.816 22.016-232.448-0.512-17.92 13.824-32.256 31.232-32.768h0.512c17.408 0 31.744 13.824 31.744 31.232 1.536 79.872-14.336 195.072-23.04 244.736-5.632 32.768-12.8 66.048-20.992 98.816-4.096 15.872-18.944 26.112-34.816 24.064-45.056-5.632-92.16-8.704-139.264-8.704-185.856 0-331.776 52.736-400.384 97.792-8.192 5.12-15.36 17.408-14.848 25.6 0.512 10.24 5.632 20.992 19.456 22.016h801.792c11.264-2.048 18.944-12.288 18.944-25.088 0-10.24-10.752-30.72-76.8-58.88l-0.512 2.56c-5.632 27.648-29.696 48.128-57.856 48.128l-86.528 1.024c-17.92 0-32.256-13.824-32.256-31.744s13.824-32.256 31.744-32.256l82.944-1.024 8.192-36.864c2.048-9.216 7.68-16.896 15.872-20.992 8.192-4.608 17.92-5.12 26.112-2.048 46.08 16.896 153.6 55.808 153.088 132.608 0 46.08-33.28 83.968-77.824 88.576-0.512-0.512-1.536 0-2.56 0z" fill="#6C5DD3" p-id="6540"></path><path d="M719.449293 615.424h-58.368c-17.92 0-32.256-14.336-32.256-32.256s14.336-32.256 32.256-32.256h58.368c17.92 0 32.256 14.336 32.256 32.256s-14.336 32.256-32.256 32.256zM812.633293 731.648h-58.368c-17.92 0-32.256-14.336-32.256-32.256s14.336-32.256 32.256-32.256h58.368c17.92 0 32.256 14.336 32.256 32.256s-14.336 32.256-32.256 32.256z" fill="#6C5DD3" p-id="6541"></path></svg>