<?xml version="1.0" standalone="no"?><!DOCTYPE svg PUBLIC "-//W3C//DTD SVG 1.1//EN" "http://www.w3.org/Graphics/SVG/1.1/DTD/svg11.dtd"><svg t="1720283204985" class="icon" viewBox="0 0 1024 1024" version="1.1" xmlns="http://www.w3.org/2000/svg" p-id="7791" xmlns:xlink="http://www.w3.org/1999/xlink" width="32" height="32"><path d="M926.4 44.8a23.872 23.872 0 0 0-32.64-9.92L700.8 138.56a24 24 0 0 0-12.48 17.28l-14.4 85.76h-144a218.4 218.4 0 0 0-216.96-194.24c-23.04 0-46.08 3.84-68.48 11.2-9.92 3.2-16.64 12.48-16.64 23.04v50.24l-51.52-18.56c-8.96-3.2-19.2-0.64-25.92 6.72a217.984 217.984 0 0 0-55.68 145.28c0 112.64 85.76 205.44 195.52 216.96l35.2 410.56c2.24 27.2 14.72 52.16 34.88 70.72 20.16 18.24 46.08 28.48 73.28 28.48h303.36c27.2 0 53.44-10.24 73.28-28.48 20.16-18.56 32.32-43.52 34.88-70.72l45.76-533.76a108.544 108.544 0 0 0-108.16-117.76h-60.16l11.2-65.92 182.72-98.24c11.84-6.08 16.32-20.48 9.92-32.32zM143.04 265.28c0-36.48 11.84-71.68 33.28-100.8l67.52 23.68c7.36 2.56 15.68 1.6 22.08-3.2 6.4-4.48 10.24-11.84 10.24-19.84V99.52c12.16-2.88 24.32-4.16 36.8-4.16 85.44 0 156.48 63.68 168.32 145.92h-93.44a108.544 108.544 0 0 0-108.16 117.76l6.4 73.92a169.792 169.792 0 0 1-143.04-167.68z m640 24.32a60.32 60.32 0 0 1 60.16 65.6l-45.76 533.76a59.84 59.84 0 0 1-60.16 55.04h-303.36c-31.36 0-57.28-23.68-60.16-55.04l-36.8-427.52c0-0.64 0.32-0.96 0.32-1.6 0-2.24-0.32-4.16-0.96-6.08l-8.32-98.56c-1.6-16.96 4.16-33.28 15.68-46.08 11.52-12.48 27.2-19.52 44.48-19.52h277.76L573.76 832c-2.24 13.12 6.72 25.6 19.84 27.84 1.28 0.32 2.56 0.32 4.16 0.32 11.52 0 21.76-8.32 23.68-20.16l93.44-550.72h68.16z" fill="#6C5DD3" p-id="7792"></path><path d="M447.68 458.24c-13.44 0.64-23.68 12.16-23.04 25.28l9.92 193.6c0.64 12.8 11.2 23.04 24 23.04h1.28c13.44-0.64 23.68-12.16 23.04-25.28l-10.24-193.92a23.744 23.744 0 0 0-24.96-22.72z" fill="#6C5DD3" p-id="7793"></path></svg>