<?xml version="1.0" standalone="no"?><!DOCTYPE svg PUBLIC "-//W3C//DTD SVG 1.1//EN" "http://www.w3.org/Graphics/SVG/1.1/DTD/svg11.dtd"><svg t="1720282401360" class="icon" viewBox="0 0 1024 1024" version="1.1" xmlns="http://www.w3.org/2000/svg" p-id="21507" xmlns:xlink="http://www.w3.org/1999/xlink" width="32" height="32"><path d="M883.854 784.485l-2.55-2.55-3.082-3.082-7.12-7.12-10.31-10.31c-16.472-16.472-16.472-16.472-32.944-32.838-31.564-31.564-45.698-45.592-63.234-63.127-4.676-4.57-4.676-4.57-9.246-9.246l-1.487-1.488c-5.42-5.42-5.42-5.42-10.84-10.734l-2.126-2.125c-8.29-8.502-12.54-12.222-19.767-15.941l-68.653 25.718c2.657 1.382 44.635 27.1 49.099 28.588 6.482 2.338 6.482 2.338 26.674-5.42 13.072-25.293 13.072-25.293 7.865-35.496-3.082-5.42-3.082-5.42-5.42-7.97-4.358-4.783-10.521-9.034-17.323-12.222-19.13-8.927-41.34-8.714-60.895 5.101-16.048 15.516-16.048 15.516-31.351 30.714-15.197 15.197-15.197 15.197-27.632 27.525l-20.51 20.51 20.617 20.512c59.513 59.3 127.21 126.891 202.346 201.92l20.511 20.512 20.511-20.511 18.917-18.917c7.864-7.97 12.434-12.54 18.704-18.704 13.497-13.497 15.835-15.941 20.618-22.85 7.97-11.37 11.902-23.592 10.52-37.408-0.85-9.458-3.294-18.279-8.182-26.78l-50.268 29.118c0.319 0.532 0.425 1.17 0.637 2.87-0.106-0.85 0.213-1.807-0.318-1.063-1.913 2.763-3.826 4.782-14.029 14.985-6.27 6.27-10.946 10.946-18.81 18.916-8.608 8.609-12.753 12.86-18.81 18.811l20.51 20.511 20.511-20.511c-75.136-75.03-142.833-142.62-202.346-201.921l-20.511 20.51 20.51 20.512c12.328-12.328 12.328-12.328 27.632-27.526 15.197-15.197 15.197-15.197 27.631-27.525-2.869 2.551-2.55 2.551-0.956 3.295 0.212 0.106 0.212 0.106-1.063-1.275-1.381-1.488-1.381-1.488-4.038-6.164-4.995-9.565 10.84 15.622 23.805-9.352 13.39-10.84 3.188-34.433 13.71-29.013l-13.71-6.802-30.288 41.447 24.868 9.777c0.319 0-6.164 8.396-2.55 12.116l2.55 2.55 10.84 10.84 1.594 1.488c4.676 4.57 4.676 4.57 9.246 9.246 17.43 17.429 31.564 31.563 63.233 63.02l32.946 32.946c5.1 5.1 5.1 5.1 10.308 10.202l7.12 7.12 3.082 3.082 3.082 3.082c2.976 2.87 53.988 10.522 53.882 10.309V800.32c-3.614-5.739-6.908-9.246-13.71-15.835zM472.041 647.604c-3.507-2.976-3.507-2.976-7.014-5.845-8.715-7.758-12.647-11.16-17.96-15.942-5.846-5.313-12.222-11.158-19.555-17.854l-3.826-3.826c-7.44-7.333-7.44-7.333-14.56-14.24l-3.507-3.507-3.082-3.082c-4.144-4.358-4.144-4.358-8.608-9.034-5.314-5.526-5.314-5.526-10.627-11.159-3.189-3.613-3.189-3.613-7.014-7.864-4.676-5.207-4.676-5.207-9.246-10.415-4.783-5.632-4.783-5.632-9.99-11.796-1.913-2.87-5.101-6.908-10.628-13.497-2.125-2.55-2.125-2.55-4.038-4.889-4.357-5.207-7.014-8.82-9.246-12.115-18.598-28.056-21.892-44.21-11.584-54.2l21.043-20.51-20.83-20.724c-27.313-27.207-45.804-45.698-100.43-100.11-48.354-48.25-73.648-73.543-102.023-101.812l-21.255-21.148-20.405 21.786c-5.42 5.845-13.496 16.685-17.003 23.168-7.44 13.922-12.86 27.737-16.685 42.51-11.903 46.016-11.053 92.67 0.53 144.745 6.059 26.888 15.198 52.606 30.183 87.995 3.932 9.246 8.502 18.598 14.24 29.332 3.826 7.014 7.865 14.347 15.623 28.27a59.502 59.502 0 0 1 1.488 2.656c3.826 6.908 8.077 13.816 13.815 22.424 3.72 5.526 3.72 5.526 7.333 10.946 3.826 5.739 6.27 9.459 8.609 13.178 2.019 2.87 2.019 2.87 3.082 4.251 1.275 1.7 1.275 1.7 2.444 3.401 2.763 3.826 2.763 3.826 5.632 7.758 3.933 6.058 8.821 12.328 16.154 21.467a1270.93 1270.93 0 0 1 4.782 5.846c6.483 7.864 9.99 12.434 13.391 17.322 4.676 5.633 4.676 5.633 7.758 9.459 3.826 4.57 3.826 4.57 7.227 8.608 5.313 6.058 5.313 6.058 10.096 11.478 6.695 7.545 6.695 7.545 12.859 14.56 6.164 6.694 6.164 6.694 11.796 12.646 7.44 7.97 7.44 7.97 14.985 15.941l3.932 3.932 3.189 3.188 21.254 21.255c1.488 1.488 1.488 1.488 3.082 2.976l3.189 3.188 3.082 3.082c2.444 2.338 2.444 2.338 4.038 3.826 8.29 7.758 8.29 7.758 16.685 15.41l5.314 4.888 8.077 7.44c7.864 6.801 7.864 6.801 14.984 12.965 5.845 4.995 5.845 4.995 11.584 9.99 1.063 0.956 1.063 0.956 2.126 1.807 8.82 7.12 17.322 13.815 26.78 21.467 5.633 4.251 9.14 6.908 17.43 13.178 5.845 3.932 10.096 6.908 16.791 11.584 4.57 3.294 4.57 3.294 9.352 6.695 8.715 6.164 15.41 10.628 22.318 14.666 3.72 2.232 8.608 5.101 17.323 10.309 6.908 4.144 12.328 7.226 17.535 10.202 7.333 4.145 13.922 7.758 20.511 11.053 19.236 9.67 38.79 18.173 59.089 25.824 13.496 5.101 19.873 7.227 28.481 9.352 3.082 0.744 5.845 1.488 11.159 2.976 2.763 0.744 2.763 0.744 5.632 1.594 6.058 1.7 10.734 2.87 15.517 3.826 46.548 9.671 89.483 10.628 129.76 0.85 17.323-4.25 30.608-8.82 44.21-16.047 10.416-5.526 22.53-13.71 30.289-21.893l19.767-20.51-20.192-20.087c-26.781-26.674-49.737-49.63-100.96-100.748-51.544-51.436-73.755-73.648-101.387-101.173l-20.51-20.51-20.512 20.51c-10.414 10.415-21.254 7.44-55.687-15.516-4.889-3.294-9.671-7.014-17.748-13.71-1.7-1.487-1.7-1.487-3.507-2.975-9.459-7.864-14.666-12.009-21.043-16.473-2.975-2.869-2.975-2.869-4.888-4.57z m-10.946 65.57c1.806 1.489 1.806 1.489 3.507 2.977 9.564 7.864 15.516 12.646 22.53 17.322 56.113 37.621 100.43 24.656 100.43 24.656 27.63 27.525 37.408 33.476 88.95 84.807C727.844 894.16 750.8 917.009 777.58 943.79l20.51-20.51-20.935-20.086c-2.87 2.975-10.096 7.97-15.623 10.84-8.82 4.676-17.748 7.758-30.82 10.946-31.138 7.545-65.57 6.801-104.148-1.275-3.507-0.744-7.12-1.595-12.115-2.976-2.657-0.744-2.657-0.744-5.42-1.488-5.846-1.594-9.034-2.55-12.86-3.4-5.632-1.382-10.52-3.083-21.998-7.334-18.492-6.908-36.027-14.56-53.35-23.274-5.633-2.87-11.478-5.951-17.96-9.67-4.89-2.764-9.884-5.74-16.58-9.672-8.501-5.1-13.496-8.077-17.428-10.308-5.314-3.189-10.84-6.802-18.386-12.116-4.463-3.188-4.463-3.188-9.14-6.482-7.226-5.102-11.902-8.396-17.003-11.69-6.908-5.314-10.415-7.865-15.304-11.584-8.714-7.015-17.216-13.816-25.293-20.299-7.12-6.164-7.12-6.164-12.966-11.159l-14.24-12.328c-3.295-3.081-3.295-3.081-7.333-6.801-2.657-2.444-2.657-2.444-5.208-4.889-8.29-7.651-8.29-7.651-16.685-15.41-1.594-1.487-1.594-1.487-3.294-2.975-0.85-0.85-0.85-0.85-2.338-2.444l-2.126-2.126c-2.55-2.55-2.55-2.55-4.145-4.038-10.627-10.522-15.303-15.304-21.148-21.149l-2.657-2.657-3.826-3.826c-6.908-7.333-6.908-7.333-14.347-15.303-5.633-5.952-5.633-5.952-11.265-12.01-5.526-6.376-5.526-6.376-11.69-13.284-5.314-6.057-5.314-6.057-10.203-11.477-2.975-3.507-2.975-3.507-6.376-7.546-3.613-4.357-3.613-4.357-6.802-8.077-2.975-4.357-7.12-9.67-14.347-18.598-2.338-2.975-2.338-2.975-4.676-5.738-6.27-7.758-10.202-12.86-13.497-17.96-3.507-4.89-3.507-4.89-6.27-8.715-1.275-1.7-1.275-1.7-2.444-3.401-1.063-1.382-1.063-1.382-2.02-2.763-1.7-2.763-4.357-6.802-8.395-12.86-3.613-5.42-3.613-5.42-7.12-10.627-4.995-7.545-8.502-13.284-11.584-18.81l-1.488-2.764c-7.97-14.134-11.69-20.83-15.197-27.312-4.995-9.246-8.821-17.11-12.01-24.55-13.815-32.413-21.892-55.262-26.993-78.005-9.777-43.572-10.415-81.087-1.063-117.327 2.657-10.308 6.377-19.873 11.69-29.65 0.957-1.807 6.058-8.715 8.29-11.16l-21.255-19.766L78.4 246.205c28.376 28.27 53.669 53.456 101.174 100.96 55.475 55.37 73.86 73.755 101.173 100.962l0.212-41.341c-36.983 36.24-28.481 78.855 3.826 127.742 3.507 5.313 7.333 10.202 12.753 16.897 2.126 2.55 2.126 2.55 4.145 5.101 4.676 5.633 7.227 8.821 9.67 12.222l1.489 1.913a1246.83 1246.83 0 0 1 10.415 12.222c5.1 5.738 5.1 5.738 9.777 10.946a626.243 626.243 0 0 1 7.652 8.608c5.845 6.164 5.845 6.164 11.158 11.796l9.14 9.565c1.382 1.382 1.382 1.382 2.338 2.444l4.889 4.89 14.453 14.24 4.782 4.782c8.077 7.44 14.56 13.285 20.618 18.917 5.632 4.995 9.564 8.502 18.916 16.791 4.039 3.401 4.039 3.401 7.652 6.377l3.826 3.188c1.594 1.382 1.594 1.382 3.188 2.657l1.913 1.488c4.995 3.294 9.246 6.695 17.536 13.603z m-53.35-382.162c-0.957-11.052-3.932-20.723-10.203-30.288-3.188-4.889-6.163-7.97-11.583-13.178-1.807-1.7-1.807-1.7-2.976-2.87l-12.115-12.115-5.846-5.845-3.188-3.188c-11.796-11.69-11.796-11.69-23.486-23.487-12.966-12.859-12.966-12.859-25.825-25.824-24.656-24.656-24.656-24.656-49.311-49.205-4.889-4.783-4.889-4.783-9.671-9.671l-12.86-12.86c-1.275-1.381-1.275-1.381-2.975-3.082-6.27-6.482-9.777-9.67-15.623-13.071-8.608-5.102-17.322-7.546-27.206-8.502-14.028-1.276-26.356 2.657-37.727 10.733-6.59 4.677-7.758 5.74-22.212 20.193-10.308 10.308-10.308 10.308-19.023 18.916-8.714 8.609-8.714 8.609-19.023 18.917l-20.617 20.511 20.617 20.511c64.084 63.871 131.78 131.462 202.347 201.922l20.51 20.404 20.512-20.404 18.385-18.386 18.386-18.385-41.022-41.129-18.386 18.386L299.24 388.4l20.51 20.511 20.512-20.51c-70.567-70.46-138.37-138.051-202.347-201.922l-20.51 20.51 20.51 20.512c10.309-10.309 10.309-10.309 19.023-18.917 8.715-8.608 8.715-8.608 19.023-18.917 10.947-10.946 12.116-12.009 14.772-13.922 0.744-0.531-0.212-0.212-1.169-0.319 1.913 0.213 2.551 0.32 3.082 0.744-0.318-0.212 0.85 0.85 3.295 3.401 1.7 1.807 1.7 1.807 3.826 3.932l12.859 12.86 9.671 9.67c24.656 24.55 24.656 24.55 49.311 49.206 12.966 12.859 12.966 12.859 25.825 25.824 11.796 11.69 11.796 11.69 23.487 23.487l3.188 3.188 5.845 5.845 12.115 12.115c2.232 2.232 2.232 2.232 4.039 3.933 2.125 2.019 3.082 2.975 2.87 2.763 0.53 0.85 0.743 1.594 0.956 3.826 0-0.107-3.189 4.995-13.922 15.728l41.022 41.022c22.53-22.53 32.838-38.684 30.713-61.958z m0 0M780.874 172.982l-67.91 77.58-68.015-77.58h-54.306l95.116 108.719h-81.513v27.206h81.513v54.2h-81.513v27.206h81.513v81.513h54.306v-81.513h81.512v-27.206h-81.512v-54.306h81.512v-27.206h-81.512l95.115-108.613h-54.306z m0 0" fill="#6C5DD3" p-id="21508"></path><path d="M712.965 25.686c-156.33 0-283.115 126.785-283.115 283.115s126.785 283.115 283.115 283.115S996.08 465.13 996.08 308.8c0-156.33-126.785-283.115-283.115-283.115z m0 525.846c-134.012 0-242.625-108.613-242.625-242.625S578.953 66.283 712.965 66.283s242.624 108.612 242.624 242.624c0 133.906-108.612 242.625-242.624 242.625z m0 0" fill="#6C5DD3" p-id="21509"></path></svg>