<svg xmlns="http://www.w3.org/2000/svg" xmlns:xlink="http://www.w3.org/1999/xlink" width="36" height="36" viewBox="0 0 36 36" fill="none">
<path   fill-rule="evenodd"  fill="url(#linear_fill_0_39_0)"  d="M6 18C6 19.65 7.35 21 9 21C10.65 21 12 19.65 12 18C12 16.35 10.65 15 9 15C7.35 15 6 16.35 6 18M24 18C24 19.65 25.35 21 27 21C28.65 21 30 19.65 30 18C30 16.35 28.65 15 27 15C25.35 15 24 16.35 24 18M15 18C15 19.65 16.35 21 18 21C19.65 21 21 19.65 21 18C21 16.35 19.65 15 18 15C16.35 15 15 16.35 15 18">
</path>
<path fill-rule="evenodd"  fill="rgba(0, 0, 0, 1)"  d="M9 21C7.35 21 6 19.65 6 18C6 16.35 7.35 15 9 15C10.65 15 12 16.35 12 18C12 19.65 10.65 21 9 21ZM18 21C16.35 21 15 19.65 15 18C15 16.35 16.35 15 18 15C19.65 15 21 16.35 21 18C21 19.65 19.65 21 18 21ZM27 21C25.35 21 24 19.65 24 18C24 16.35 25.35 15 27 15C28.65 15 30 16.35 30 18C30 19.65 28.65 21 27 21ZM8 18C8 17.4477 8.44772 17 9 17C9.55228 17 10 17.4477 10 18C10 18.5523 9.55228 19 9 19C8.44772 19 8 18.5523 8 18ZM17 18C17 17.4477 17.4477 17 18 17C18.5523 17 19 17.4477 19 18C19 18.5523 18.5523 19 18 19C17.4477 19 17 18.5523 17 18ZM26 18C26 17.4477 26.4477 17 27 17C27.5523 17 28 17.4477 28 18C28 18.5523 27.5523 19 27 19C26.4477 19 26 18.5523 26 18Z">
</path>
<defs>
<radialGradient id="linear_fill_0_39_0" cx="0" cy="0" r="1" gradientTransform="translate(30.334579467773438 21.06427001953125) rotate(-76.88938210326074) scale(23.889958752509287, 20.26349509994544)" gradientUnits="userSpaceOnUse">
<stop offset="0" stop-color="#13C93E"  />
<stop offset="1" stop-color="#ADE446"  />
</radialGradient>
</defs>
</svg>
