<?xml version="1.0" standalone="no"?><!DOCTYPE svg PUBLIC "-//W3C//DTD SVG 1.1//EN" "http://www.w3.org/Graphics/SVG/1.1/DTD/svg11.dtd"><svg t="1720284061227" class="icon" viewBox="0 0 1024 1024" version="1.1" xmlns="http://www.w3.org/2000/svg" p-id="39547" xmlns:xlink="http://www.w3.org/1999/xlink" width="32" height="32"><path d="M294.912 316.829193l155.791719-117.203088a157.085193 157.085193 0 0 1 148.174597-21.126737l247.412772 93.633123c16.096561 6.036211 33.055439 9.198035 50.301754 8.838737h40.816281c11.641263-0.359298 21.486035 8.838737 21.845333 20.55186v302.529123a22.49207 22.49207 0 0 1-21.845333 22.060912h-54.110316a33.271018 33.271018 0 0 0-21.198596 7.257824l-12.000562 9.701053a7.185965 7.185965 0 0 1-9.701053-0.718596L552.816281 293.187368a24.863439 24.863439 0 0 0-30.181053-5.605052L390.629053 360.807298a97.729123 97.729123 0 0 1-86.303439 4.096 30.037333 30.037333 0 0 1-15.521684-39.091649c-0.359298-2.515088 2.874386-5.748772 6.03621-8.982456zM91.189895 625.178947h46.421333l32.552421-39.882105A83.860211 83.860211 0 0 1 287.438596 574.805333c13.150316 10.778947 22.707649 25.150877 27.594106 41.463018 28.456421 7.185965 50.732912 28.959439 58.637473 57.128421 20.48 5.748772 37.870035 19.473965 47.858527 38.229333 17.605614 2.802526 33.917754 11.138246 46.421333 24.001123 26.228772 27.737825 31.115228 69.488281 12.000561 102.543719l-4.886456 8.192v0.862316c21.773474 14.587509 51.307789 9.269895 66.613895-12.000561a46.493193 46.493193 0 0 0 7.401544-36.001684v-0.790457h0.718596l4.024141 3.161825a50.445474 50.445474 0 0 0 61.799298 6.467368c15.306105-10.778947 22.995088-29.462456 19.545825-47.858526v-1.006035h0.790456l4.096 3.233684a50.301754 50.301754 0 0 0 61.799298 6.539228 49.22386 49.22386 0 0 0 20.40814-47.858526v-0.790456h0.718597l4.096 3.161824a49.295719 49.295719 0 0 0 58.565614 7.401544 47.13993 47.13993 0 0 0 16.743298-64.458105l-0.431158-0.718597a58.493754 58.493754 0 0 0-5.748772-7.329684l-29.246877-34.995649-235.987088-283.845614a8.695018 8.695018 0 0 0-9.701052-1.652772l-113.178948 62.733474a142.713263 142.713263 0 0 1-117.921684 8.982456c-21.557895-7.473404-38.732351-24.50414-46.421333-45.990175a76.889825 76.889825 0 0 1 8.192-64.386246 11.066386 11.066386 0 0 0-4.886456-14.659368 12.575439 12.575439 0 0 0-5.748772-0.718597H86.519018a21.198596 21.198596 0 0 0-21.917193 20.48V606.495439a31.474526 31.474526 0 0 0 26.013193 18.683508h0.503017z m163.84-21.845333a41.678596 41.678596 0 0 0-52.960562 10.491509l-31.618245 39.091649a39.163509 39.163509 0 0 0 4.599017 55.18821l1.006035 0.862316h0.862316l4.886456 3.233684c12.934737 9.629193 30.396632 10.922667 44.696702 3.377404 0.718596-0.718596 1.652772 0 2.515088 0.718596v1.724632a39.738386 39.738386 0 0 0 14.587509 39.091649l4.096 2.371369c12.719158 9.413614 29.606175 10.994526 43.834385 4.096 0.718596-0.574877 1.652772-0.503018 2.22765 0.215579 0.215579 0.215579 0.287439 0.431158 0.287438 0.574877v0.862316a40.600702 40.600702 0 0 0 15.521684 35.929824l2.443228 1.724632a39.522807 39.522807 0 0 0 43.978106 3.233684c0.718596-0.790456 2.371368 0 2.371368 0.718596v0.14372c1.940211 10.060351 7.401544 18.899088 15.521684 25.150877l1.724632 0.862316c17.964912 13.797053 43.834386 10.491509 57.775158-7.329685a9.341754 9.341754 0 0 1 4.02414-4.096l5.748772-9.772912a40.816281 40.816281 0 0 0-7.257824-51.23593 42.253474 42.253474 0 0 0-44.696702-7.257824c-0.790456 0-0.790456 0-1.724632-0.790456v-0.790457a41.175579 41.175579 0 0 0-38.229333-42.325333 56.409825 56.409825 0 0 0-16.240281 2.371369q-6.467368 0.862316-4.958316-4.096a39.522807 39.522807 0 0 0-20.983017-51.738948 44.552982 44.552982 0 0 0-35.067509 1.293474q-4.886456 0.718596-4.096-3.305544a37.510737 37.510737 0 0 0-14.803088-50.589193z" p-id="39548" fill="#6C5DD3"></path></svg>