<?xml version="1.0" standalone="no"?><!DOCTYPE svg PUBLIC "-//W3C//DTD SVG 1.1//EN" "http://www.w3.org/Graphics/SVG/1.1/DTD/svg11.dtd"><svg t="1720282655252" class="icon" viewBox="0 0 1024 1024" version="1.1" xmlns="http://www.w3.org/2000/svg" p-id="1514" xmlns:xlink="http://www.w3.org/1999/xlink" width="32" height="32"><path d="M659.456 924.672H364.544c-16.384 0-29.696 13.312-29.696 29.696s13.312 29.696 29.696 29.696h294.912c16.384 0 29.696-13.312 29.696-29.696s-13.312-29.696-29.696-29.696zM512 40.448c-211.456 0-382.976 171.52-382.976 382.976 0 131.072 67.072 253.44 177.664 323.584l17.408 73.216c6.144 26.624 30.208 45.056 57.344 45.056h260.608c27.136 0 51.2-18.432 57.344-45.056l17.408-73.216c110.592-70.144 178.176-192.512 177.664-323.584 0.512-211.456-171.008-382.976-382.464-382.976zM634.88 445.44c-0.512 2.56-1.536 5.12-3.072 7.168l-147.456 169.984c-4.096 4.608-9.216 3.584-12.288-2.048-1.536-2.56-2.048-5.632-1.536-9.216l11.776-167.936-85.504-27.648c-4.608-1.536-7.68-8.192-6.656-14.848 0.512-2.56 1.536-5.12 3.072-7.168l147.456-169.984c4.096-4.608 9.216-3.584 12.288 2.048 1.536 2.56 2.048 5.632 1.536 9.216L542.72 402.944l85.504 27.648c4.096 1.536 7.68 8.192 6.656 14.848z" fill="#6C5DD3" p-id="1515"></path></svg>