<?xml version="1.0" standalone="no"?><!DOCTYPE svg PUBLIC "-//W3C//DTD SVG 1.1//EN" "http://www.w3.org/Graphics/SVG/1.1/DTD/svg11.dtd"><svg t="1720284398246" class="icon" viewBox="0 0 1024 1024" version="1.1" xmlns="http://www.w3.org/2000/svg" p-id="49786" xmlns:xlink="http://www.w3.org/1999/xlink" width="32" height="32"><path d="M429.419355 330.322581c36.434581 0 66.064516-29.629935 66.064516-66.064516h-33.032258c0 18.21729-14.814968 33.032258-33.032258 33.032258-8.008258 0-15.805935-3.072-21.982968-8.604904l-22.098581 24.540904C397.572129 324.242581 413.233548 330.322581 429.419355 330.322581z m0 0M214.709677 297.290323h33.032258c0-36.434581-29.629935-66.064516-66.064516-66.064517-16.185806 0-31.847226 6.08-44.081548 17.096259l22.098581 24.540903C165.871484 267.330065 173.671226 264.258065 181.677419 264.258065c18.21729 0 33.032258 14.814968 33.032258 33.032258z m0 0M346.83871 181.677419c8.008258 0 15.805935 3.072 21.982967 8.604904l22.098581-24.540904C378.685935 154.725161 363.024516 148.645161 346.83871 148.645161c-36.434581 0-66.064516 29.629935-66.064516 66.064516h33.032258c0-18.21729 14.814968-33.032258 33.032258-33.032258z m0 0" p-id="49787" fill="#6C5DD3"></path><path d="M974.451613 594.580645h-56.072258l22.379355-223.822451a135.411613 135.411613 0 0 0 0.660645-13.186065V346.83871c0-33.162323-12.387097-63.436387-32.637936-86.676645L926.338065 49.548387H858.83871V0h-99.096775v49.548387h-67.499354l17.556645 210.613678C689.548387 283.402323 677.16129 313.676387 677.16129 346.83871v10.735484c0 4.426323 0.23329 8.805161 0.660645 13.159225l7.46942 74.694194c-17.758968-7.983484-36.96929-13.266581-57.170581-15.153548 2.533161-67.363097 21.16129-133.491613 54.668387-192.144517l8.712258-15.225806-28.678193-16.388129-8.701936 15.225806c-36.356129 63.622194-56.452129 135.403355-59.008 208.485162-54.80671 4.82271-102.637419 34.039742-132.645161 76.733935v-94.878968c57.507097-6.61471 102.354581-55.549935 102.354581-114.791225 0-34.797419-15.533419-65.981935-39.944258-87.184517C527.225806 200.856774 528.516129 191.355871 528.516129 181.677419c0-63.733677-51.879226-115.612903-115.612903-115.612903-8.904258 0-17.670194 1.154065-26.289549 3.185549C368.710194 28.539871 328.02271 0 280.774194 0S192.838194 28.539871 174.93471 69.250065C166.317419 67.218581 157.547355 66.064516 148.645161 66.064516c-63.733677 0-115.612903 51.879226-115.612903 115.612903a115.984516 115.984516 0 0 0 4.211613 30.87071C14.402065 233.668129 0 263.797677 0 297.290323c0 58.120258 43.169032 106.233806 99.096774 114.291612V561.548387c0 11.144258 1.135484 22.177032 3.121549 33.032258H49.548387c-27.313548 0-49.548387 22.234839-49.548387 49.548387s22.234839 49.548387 49.548387 49.548387h49.548387v165.161291c0 91.072 74.08929 165.16129 165.161291 165.16129h495.48387c91.072 0 165.16129-74.08929 165.161291-165.16129v-165.161291h49.548387c27.313548 0 49.548387-22.234839 49.548387-49.548387s-22.234839-49.548387-49.548387-49.548387z m-182.515613 0a180.888774 180.888774 0 0 0-40.815484-99.096774H809.290323v-33.032258h-89.104517l-6.606451-66.064516H809.290323v-33.032258h-98.79742c-0.113548-1.936516-0.299355-3.846194-0.299355-5.780645V346.83871c0-54.653935 44.442839-99.096774 99.096775-99.096775s99.096774 44.442839 99.096774 99.096775v10.735484a99.055484 99.055484 0 0 1-0.491355 9.876645l-22.709677 227.129806z m98.498065-512l-12.620388 151.500387c-6.03871-3.676903-12.354065-6.951226-18.974967-9.645419V82.580645zM825.806452 33.032258v182.812903c-5.419355-0.675097-10.92129-1.135484-16.516129-1.135484s-11.096774 0.460387-16.516129 1.135484V33.032258z m-66.064517 49.548387v141.852903c-6.620903 2.696258-12.936258 5.970581-18.974967 9.647484L728.144516 82.580645z m-65.420387 405.419355l-35.773935 35.773935L611.096774 492.145548l-47.450839 31.628387-35.776-35.773935C551.63871 471.878194 580.273548 462.451613 611.096774 462.451613s59.458065 9.426581 83.226839 25.548387z m-191.539613 21.621677l56.670968 56.668904L611.096774 531.854452l51.645936 34.436129 56.668903-56.670968c21.388387 22.808774 35.726452 52.259097 39.353806 84.961032H463.428129c3.627355-32.701935 17.967484-62.152258 39.353806-84.958968zM132.129032 561.548387v-149.918968c14.534194-2.097548 28.589419-6.854194 41.306839-14.218322l-16.549161-28.572903A82.553806 82.553806 0 0 1 115.612903 379.870968c-45.532903 0-82.580645-37.047742-82.580645-82.580645s37.047742-82.580645 82.580645-82.580646V181.677419c-17.337806 0-33.758968 3.943226-48.540903 10.830452C66.597161 188.928 66.064516 185.346065 66.064516 181.677419c0-45.532903 37.047742-82.580645 82.580645-82.580645 5.927226 0 11.757419 0.805161 17.523613 2.081032C165.574194 105.92 165.16129 110.709677 165.16129 115.612903h33.032258c0-45.532903 37.047742-82.580645 82.580646-82.580645s82.580645 37.047742 82.580645 82.580645h33.032258c0-4.903226-0.412903-9.692903-1.007484-14.435097C401.145806 99.901935 406.976 99.096774 412.903226 99.096774c45.532903 0 82.580645 37.047742 82.580645 82.580645 0 3.152516-0.507871 6.226581-0.85471 9.331613A114.952258 114.952258 0 0 0 449.185032 181.677419v33.032258c45.541161 0 82.580645 37.047742 82.580645 82.580646s-37.039484 82.580645-82.580645 82.580645c-10.434065 0-20.603871-1.92-30.232774-5.71871l-12.098064 30.74271a115.427097 115.427097 0 0 0 22.565161 6.243097V561.548387c0 11.218581-1.670194 22.218323-4.129032 33.032258h-128v-46.065548c0-74.652903 21.888-146.925419 63.289806-209.024l-27.482839-18.322581c-23.275355 34.904774-40.743226 72.79071-52.323096 112.427355-11.581935-39.636645-29.047742-77.522581-52.323097-112.427355l-27.482839 18.322581C242.370065 401.571097 264.258065 473.862194 264.258065 548.515097V594.580645H136.258065c-2.458839-10.813935-4.129032-21.813677-4.129033-33.032258z m842.322581 99.096774h-115.612903v33.032258h33.032258v33.032258h-115.612903v33.032258h115.612903v33.032259h-115.612903v33.032258h115.612903v33.032258h-115.612903v33.032258h111.267096a131.36929 131.36929 0 0 1-13.524645 33.032258H776.258065v33.032258h70.58787c-23.287742 20.500645-53.724903 33.032258-87.104 33.032258H264.258065c-35.773935 0-68.226065-14.354581-92.048517-37.524645H247.741935v-33.032258H147.435355c-4.717419-8.951742-8.371613-18.531097-10.960516-28.539871H247.741935v-33.032258H132.129032v-33.032258h115.612903v-33.032258H132.129032v-33.032259h115.612903v-33.032258H132.129032v-33.032258h693.67742v-33.032258H49.548387c-9.112774 0-16.516129-7.403355-16.516129-16.516129s7.403355-16.516129 16.516129-16.516129h924.903226c9.112774 0 16.516129 7.403355 16.516129 16.516129s-7.403355 16.516129-16.516129 16.516129z m0 0" p-id="49788" fill="#6C5DD3"></path><path d="M280.774194 759.741935h99.096774v33.032259h-99.096774z m0 0M412.903226 726.709677h198.193548v33.032258h-198.193548z m0 0M412.903226 792.774194h198.193548v33.032258h-198.193548z m0 0M644.129032 759.741935h99.096774v33.032259h-99.096774z m0 0M280.774194 891.870968h99.096774v33.032258h-99.096774z m0 0M412.903226 858.83871h198.193548v33.032258h-198.193548z m0 0M412.903226 924.903226h198.193548v33.032258h-198.193548z m0 0M644.129032 891.870968h99.096774v33.032258h-99.096774z m0 0M644.129032 825.806452h33.032258v33.032258h-33.032258z m0 0M710.193548 825.806452h33.032258v33.032258h-33.032258z m0 0M346.83871 825.806452h33.032258v33.032258h-33.032258z m0 0M280.774194 825.806452h33.032258v33.032258h-33.032258z m0 0" p-id="49789" fill="#6C5DD3"></path></svg>