<?xml version="1.0" standalone="no"?><!DOCTYPE svg PUBLIC "-//W3C//DTD SVG 1.1//EN" "http://www.w3.org/Graphics/SVG/1.1/DTD/svg11.dtd"><svg t="1720284501436" class="icon" viewBox="0 0 1024 1024" version="1.1" xmlns="http://www.w3.org/2000/svg" p-id="51869" xmlns:xlink="http://www.w3.org/1999/xlink" width="32" height="32"><path d="M635.763 737.951v-43.895c120.9-48.986 206.272-167.345 206.272-305.82C842.035 205.965 694.27 58.2 511.999 58.2S181.964 205.965 181.964 388.236 329.729 718.272 512 718.272v-82.51h41.254v371.291H512v-247.53c-205.06 0-371.291-166.231-371.291-371.291S306.94 16.942 512 16.942s371.291 166.231 371.291 371.291c-0.001 161.594-103.418 298.69-247.529 349.714zM264.471 388.237c0-136.709 110.817-247.527 247.527-247.527 91.139 0 165.018 73.879 165.018 165.018s-73.879 165.018-165.018 165.018v-2.08c-47.071-9.554-82.51-51.164-82.51-101.057s35.437-91.504 82.51-101.057v43.343c-23.92 8.556-41.254 30.859-41.254 57.715s17.335 49.158 41.254 57.715v4.166c68.351 0 123.763-55.413 123.763-123.763s-55.412-123.764-123.762-123.764c-113.92 0-206.272 92.352-206.272 206.272s92.352 206.272 206.272 206.272c56.964 0 108.532-23.086 145.859-60.413l29.167 29.167c-44.795 44.795-106.676 72.5-175.026 72.5-136.709 0.001-247.529-110.816-247.529-247.525z" fill="#6C5DD3" p-id="51870"></path></svg>