<svg xmlns="http://www.w3.org/2000/svg" xmlns:xlink="http://www.w3.org/1999/xlink" width="36" height="36" viewBox="0 0 36 36" fill="none">
<path   fill-rule="evenodd"  fill="#C4C4C4"  d="M17.3592 6C14.5303 6 12.237 8.3505 12.237 11.25C12.237 14.1495 14.5303 16.5 17.3592 16.5C20.1881 16.5 22.4813 14.1495 22.4813 11.25C22.4813 8.3505 20.1881 6 17.3592 6ZM31.1818 30C30.4538 23.2501 24.8705 18 18.0909 18C11.3113 18 5.728 23.2501 5 30L10.7924 30C11.2683 26.3036 14.3546 23.4509 18.091 23.4509C21.8274 23.4509 24.9137 26.3036 25.3896 30L31.1818 30ZM15.1639 30L21.0179 30C21.0179 28.3431 19.7074 27 18.0909 27C16.4744 27 15.1639 28.3431 15.1639 30Z">
</path>
</svg>
