<svg xmlns="http://www.w3.org/2000/svg" xmlns:xlink="http://www.w3.org/1999/xlink" width="55.0020751953125" height="61.279449462890625" viewBox="0 0 55.0020751953125 61.279449462890625" fill="none">
<g >
<path     fill="#000000"  d="M12.546 39.9469Q12.834 39.2269 14.778 41.3149Q16.29 42.7549 16.722 43.5469Q19.746 47.4349 22.122 49.3069Q23.994 50.8189 25.578 51.3949Q27.162 51.9709 30.114 52.1149Q31.41 52.1869 33.642 51.8989Q35.874 51.6109 36.162 51.3949Q37.314 50.1709 36.738 46.5709Q36.45 45.4909 36.378 44.0509L36.378 42.7549L36.45 42.8989Q36.81 43.2589 37.026 44.6269Q37.386 46.2829 37.602 46.2109Q37.674 46.0669 37.602 44.9869Q37.53 43.7629 37.386 43.0429L37.242 42.3949L37.674 42.8989Q38.106 43.3309 38.61 44.0869Q39.114 44.8429 39.582 45.3469Q40.05 45.8509 40.05 46.1029Q40.05 46.3549 40.338 46.4629Q40.626 46.5709 40.626 46.8949Q40.626 47.2189 41.238 48.4069Q41.85 49.5949 41.85 49.8829Q41.85 50.1709 42.066 50.1709Q42.282 50.1709 42.426 50.5309Q42.498 50.9629 43.362 51.8989Q44.226 52.8349 44.586 52.8349Q44.874 52.9069 45.09 52.6189Q45.162 52.4749 45.522 52.9789Q45.522 53.0509 45.594 53.1229Q45.882 53.9869 46.17 53.9869Q46.458 53.9869 46.35 55.0669Q46.242 56.1469 46.17 57.1549Q46.098 59.1709 45.306 59.1709Q45.09 59.1709 44.478 59.7469Q43.866 60.3229 42.822 60.5749Q41.778 60.8269 41.094 61.0429Q40.41 61.2589 39.33 61.2589Q38.106 61.3309 36.198 61.1509Q34.29 60.9709 34.218 60.8269Q34.146 60.6829 33.822 60.7909Q33.498 60.8989 31.086 60.2869Q28.674 59.6749 27.594 59.1709Q25.29 58.1629 23.814 56.9749Q22.338 55.7869 19.314 52.4749Q15.354 48.0829 13.842 43.5469Q13.194 41.5309 12.834 40.8829Q12.474 40.2349 12.546 39.9469ZM4.19403 40.1629Q3.83403 39.6589 3.83403 39.2629Q3.83403 38.8669 3.97803 38.8669Q4.12203 38.8669 5.27403 39.6589Q6.42603 40.4509 6.49803 40.6309Q6.57003 40.8109 7.43403 41.2429Q10.242 42.6109 9.16203 49.3069Q8.65803 52.1869 7.57803 54.1309Q6.93003 55.2829 5.85003 57.7309Q4.77003 60.1789 4.26603 60.6109L3.83403 60.9709L3.47403 60.6109Q3.18603 60.1789 3.18603 59.9269Q3.18603 59.6749 2.61003 59.0269Q1.53003 57.8029 1.53003 57.5149Q1.53003 57.2989 0.882033 57.0109Q0.378034 56.8669 0.342033 56.6509Q0.306034 56.4349 0.594033 55.9309Q0.882033 55.4989 0.774035 55.0309Q0.666034 54.5629 0.378034 54.5629Q0.0900335 54.5629 0.0900335 54.3109Q0.0900335 54.0589 0.378034 53.8429Q0.522034 53.7709 0.162034 53.4109Q-0.0539665 53.1229 0.018034 52.8709Q0.0900335 52.6189 0.810034 51.8989Q1.67403 50.8189 2.07003 49.7029Q2.46603 48.5869 2.89803 47.5789Q3.90603 45.4189 4.30203 43.1509Q4.69803 40.8829 4.19403 40.1629ZM35.658 35.1949Q36.018 34.8349 36.378 35.3389Q36.594 35.6269 35.91 36.3469Q35.226 37.0669 35.298 37.3909Q35.37 37.7149 34.65 38.6509Q33.786 39.7309 34.218 39.7309Q34.578 39.7309 34.578 39.8029Q34.578 39.9469 34.038 40.7389Q33.498 41.5309 33.21 41.8189Q32.922 42.0349 32.382 42.9349Q31.842 43.8349 31.482 44.1229Q30.906 44.3389 30.978 46.2109Q30.978 46.5709 30.186 47.1469Q29.394 47.7229 29.034 48.0829Q28.602 48.5149 28.422 48.4789Q28.242 48.4429 27.738 47.7229Q27.162 47.0029 26.478 46.8949Q25.794 46.7869 25.542 46.3189Q25.29 45.8509 24.93 45.7069Q24.57 45.5629 24.354 45.0949Q24.138 44.6269 23.49 44.0509Q21.402 42.1069 21.258 41.4589Q21.114 40.8109 20.826 40.5589Q20.538 40.3069 20.538 39.9469Q20.538 39.5869 21.51 39.5869Q22.482 39.5869 22.554 39.7669Q22.626 39.9469 23.238 39.9469Q23.85 39.9469 24.93 40.7749Q26.01 41.6029 26.298 41.6029Q27.594 41.6029 32.922 37.0669Q35.082 35.1949 35.19 35.2669Q35.298 35.3389 35.658 35.1949ZM40.05 31.8829Q40.05 31.5949 41.85 31.5229Q43.65 31.4509 44.01 31.4509Q44.298 31.3789 46.206 32.0269Q48.114 32.6749 49.554 33.3229Q50.922 33.9709 51.534 34.1149Q52.146 34.2589 52.362 34.7989Q52.578 35.3389 53.298 36.2749Q54.018 37.2109 53.802 39.2269Q53.658 39.8749 54.198 40.3429Q54.738 40.8109 54.954 41.3149Q55.026 41.5309 54.99 41.5669Q54.954 41.6029 54.594 41.2429Q54.234 40.5949 53.91 40.9549Q53.586 41.3149 54.018 42.2149Q54.45 43.1149 54.45 43.5469L54.234 43.6909Q54.162 43.1869 53.802 43.2589Q53.586 43.2589 53.586 43.5469Q53.586 43.6909 53.802 44.1229Q54.018 44.5549 53.694 45.0589Q53.37 45.5629 53.37 46.2109L53.37 46.7869L53.01 46.2829Q52.722 45.7789 52.47 45.7789Q52.218 45.7789 51.822 45.3469Q51.426 44.9149 51.282 44.9149Q51.138 44.9149 49.662 43.5109Q48.186 42.1069 46.602 39.3709Q45.018 36.6349 44.514 36.1309Q44.01 35.6269 44.01 35.4469Q44.01 35.2669 43.002 34.7629Q42.282 34.3309 41.166 33.2869Q40.05 32.2429 40.05 31.8829ZM27.45 0.418888Q27.162 -0.157112 28.17 0.0588913Q29.322 0.490891 31.266 1.71489Q33.57 3.22689 34.002 5.09889Q34.218 6.25089 33.858 7.22289Q33.498 8.19489 32.994 8.84289L31.77 10.6429Q30.906 11.7949 30.33 12.5869Q28.53 14.6029 28.53 14.8909Q28.53 15.0349 29.322 15.4669Q32.634 17.0509 33.93 17.4109Q35.082 17.8429 35.154 18.3109Q35.226 18.7789 35.622 18.8869Q36.018 18.9949 35.91 19.7149Q35.802 20.4349 36.018 20.8309Q36.234 21.2269 35.802 21.6949Q35.37 22.1629 35.046 23.2429Q34.722 24.3229 34.47 24.7909Q34.218 25.2589 33.93 26.0149Q33.642 26.7709 33.462 26.7709Q33.282 26.7709 33.282 27.0589Q33.282 27.4909 32.85 28.2469Q32.418 29.0029 32.274 29.0029Q31.986 29.0029 32.13 29.3629Q32.274 29.7229 31.914 29.9389Q30.978 30.5869 30.978 31.3789Q30.978 31.5949 30.618 31.8469Q30.258 32.0989 30.762 32.3509Q31.266 32.6029 31.266 33.3589Q31.266 34.1149 31.554 34.1149Q32.274 34.1149 31.554 34.2589Q31.266 34.4029 30.762 34.4029Q29.826 34.4749 29.61 34.6909Q29.394 34.9069 29.034 34.9069Q28.674 34.9069 27.882 35.6269Q27.09 36.3469 26.298 36.2389Q25.506 36.1309 25.362 36.0229Q25.218 35.9149 24.354 36.3469Q19.314 38.5069 18.306 38.2189Q17.586 38.0749 17.37 37.9309Q16.938 37.4269 16.722 38.2909Q16.65 38.3629 16.65 38.5789Q16.434 40.1629 16.146 40.1629Q16.002 40.1629 15.318 39.1909Q14.634 38.2189 14.454 38.2189Q14.274 38.2189 13.122 37.3549Q11.97 36.4909 12.114 35.9869Q12.258 35.4829 11.97 35.2669Q10.818 34.4029 11.178 31.8829Q11.394 30.4429 11.322 28.1389Q11.034 24.3949 10.638 22.8109Q10.242 21.2269 9.23403 20.7229Q8.65803 20.4349 8.55003 20.0029Q8.44203 19.5709 8.04603 19.4989Q7.65003 19.4269 7.43403 18.9949Q7.14603 18.4909 7.57803 18.6349Q8.22603 18.7789 10.602 20.0029L13.41 21.4429L14.418 21.0109Q18.522 19.4989 18.738 18.8509Q18.882 18.4909 18.342 18.0589Q17.802 17.6269 17.802 17.1949Q17.802 16.7629 17.442 16.5469Q17.082 16.4029 16.29 14.8189Q15.498 13.2349 15.498 12.8029Q15.498 12.3709 14.706 11.1109Q13.914 9.85089 13.194 8.98689Q12.258 8.12289 12.618 7.97889Q12.834 7.90689 13.842 8.55489Q14.922 9.13089 15.138 9.13089Q15.354 9.13089 16.218 9.81489Q17.082 10.4989 17.298 10.4989Q17.514 10.4989 18.522 11.4349Q19.674 12.5869 20.466 11.8669Q20.754 11.7229 20.79 11.7589Q20.826 11.7949 20.754 12.1549Q20.682 12.6589 20.862 12.8029Q21.042 12.9469 21.474 12.8029Q21.834 12.7309 21.978 12.9469Q22.05 13.0909 22.41 12.5509Q22.77 12.0109 23.13 11.2909Q23.49 10.5709 23.49 10.3549Q23.49 10.0669 24.03 9.67089Q24.57 9.27489 24.57 8.80689Q24.57 8.33889 24.714 8.33889Q24.858 8.33889 25.542 7.15089Q26.226 5.96289 26.226 5.67489Q26.226 5.45889 26.766 4.59489Q27.306 3.73089 27.162 3.55089Q27.018 3.37089 27.342 3.11889Q27.666 2.86689 27.558 2.68689Q27.45 2.50689 27.702 1.78689Q27.954 1.06689 27.738 0.886887Q27.522 0.70689 27.45 0.418888ZM27.018 22.5949Q27.018 22.2349 26.226 22.6669L24.138 23.6029Q22.554 24.3229 20.034 25.1149Q17.514 25.9069 16.866 25.9069Q16.362 25.9069 16.254 25.9789Q16.146 26.0509 16.29 26.4109Q17.01 28.9309 17.01 30.5149Q17.01 30.9469 17.082 31.0189Q17.154 31.0909 17.658 31.0189Q18.306 30.8749 18.414 30.6949Q18.522 30.5149 18.774 30.5149Q19.026 30.5149 19.53 30.2269Q20.034 29.9389 21.33 29.4709Q22.626 29.0029 22.878 28.7149Q23.13 28.4269 23.85 28.4269Q24.57 28.4269 24.57 28.1389Q24.57 27.8509 25.794 25.3309Q27.018 22.8109 27.018 22.5949Z">
</path>
</g>
</svg>
