<svg xmlns="http://www.w3.org/2000/svg" xmlns:xlink="http://www.w3.org/1999/xlink" width="42" height="42" viewBox="0 0 42 42" fill="none">
<path fill-rule="evenodd"  fill="rgba(108, 93, 211, 1)"  d="M24.4478 20.3732L24.4478 14.418C24.4478 9.22483 20.238 5.01497 15.0448 5.01497C9.85172 5.01497 5.64186 9.22483 5.64186 14.418L5.64186 32.5971C5.64186 33.9819 4.51923 35.1045 3.1344 35.1045C1.74957 35.1045 0.626937 33.9819 0.626937 32.5971L0.626937 14.418C0.626937 6.45516 7.08206 4.45843e-05 15.0448 4.45843e-05C23.0076 4.45843e-05 29.4628 6.45516 29.4628 14.418L29.4628 20.3732C29.4628 21.758 28.3401 22.8806 26.9553 22.8806C25.5705 22.8806 24.4478 21.758 24.4478 20.3732Z">
</path>
<path fill-rule="evenodd"  fill="rgba(108, 93, 211, 1)"  d="M17.5522 21.9402L17.5522 27.582Q17.5522 31.4769 20.3062 34.2309Q23.0603 36.985 26.9552 36.985C32.1483 36.985 36.3581 32.7751 36.3581 27.582L36.3581 9.40291C36.3581 8.01808 37.4808 6.89545 38.8656 6.89545C40.2504 6.89545 41.3731 8.01808 41.3731 9.40291L41.3731 27.582C41.3731 35.5448 34.9179 41.9999 26.9552 41.9999Q20.9831 41.9999 16.7601 37.777Q12.5372 33.5541 12.5372 27.582L12.5372 21.9402C12.5372 20.5554 13.6599 19.4328 15.0447 19.4328C16.4295 19.4328 17.5522 20.5554 17.5522 21.9402Z">
</path>
<path    stroke="rgba(108, 93, 211, 1)" stroke-width="5.014925479888916"    d="M2.50781 21.3134L39.4978 21.3134">
</path>
<path fill-rule="evenodd"  fill="rgba(108, 93, 211, 1)"  d="M29.46 42L12.54 42C5.61 42 0 36.39 0 29.46L0 12.54C0 5.61 5.61 0 12.54 0L29.46 0C36.39 0 42 5.61 42 12.54L42 29.46C42 36.39 36.39 42 29.46 42ZM29.46 36.9851L12.54 36.9851C8.38402 36.9851 5.01493 33.616 5.01493 29.46L5.01493 12.54C5.01493 8.38402 8.38402 5.01493 12.54 5.01493L29.46 5.01493C33.616 5.01493 36.9851 8.38402 36.9851 12.54L36.9851 29.46C36.9851 33.616 33.616 36.9851 29.46 36.9851Z">
</path>
</svg>
