<svg xmlns="http://www.w3.org/2000/svg" xmlns:xlink="http://www.w3.org/1999/xlink" width="28.077880859375" height="25.336959838867188" viewBox="0 0 28.077880859375 25.336959838867188" fill="none">
<path d="M27.3576 0.534822C26.0798 -0.48735 23.0133 -0.231771 18.7969 2.96247C12.7916 7.43449 10.1084 13.3119 6.27529 19.0617C5.63644 19.956 6.65862 20.4671 7.42524 20.0838L9.85288 18.6783C10.2362 18.5506 10.364 18.5506 10.2362 17.9117C9.98065 15.9952 10.7473 14.2064 11.8972 12.6731C16.1137 14.4619 21.2245 13.4397 23.0133 8.32889C25.3132 7.81779 27.4852 5.26237 27.8688 3.4736C28.252 2.19587 28.124 1.04595 27.3576 0.53485L27.3576 0.534822ZM1.67553 19.0617C5.12534 25.0669 12.6639 27.1113 18.6691 23.6614C22.63 21.3616 24.8021 17.2729 24.9299 13.0564C24.9299 11.651 23.2688 11.7787 23.2688 13.0564C23.2688 16.7618 21.3523 20.2117 17.9025 22.256C12.6638 25.1947 6.01974 23.4059 3.081 18.2951C0.014486 13.0565 1.80328 6.41237 7.04188 3.47363C9.85285 1.8126 13.3027 1.55705 16.1136 2.70703C17.2636 3.09036 17.7747 1.55708 16.6247 1.17375C13.3026 0.0238072 9.59733 0.151582 6.27526 2.06815C0.270005 5.51798 -1.77431 13.1843 1.67548 19.0617L1.67553 19.0617Z"   fill="#6C5DD3" >
</path>
</svg>
